<svg width="253" height="325" viewBox="0 0 253 325" fill="none" xmlns="http://www.w3.org/2000/svg">
<path d="M45.0391 158.988V165H41.5234V147.938H48.1797C49.4609 147.938 50.5859 148.172 51.5547 148.641C52.5312 149.109 53.2812 149.777 53.8047 150.645C54.3281 151.504 54.5898 152.484 54.5898 153.586C54.5898 155.258 54.0156 156.578 52.8672 157.547C51.7266 158.508 50.1445 158.988 48.1211 158.988H45.0391ZM45.0391 156.141H48.1797C49.1094 156.141 49.8164 155.922 50.3008 155.484C50.793 155.047 51.0391 154.422 51.0391 153.609C51.0391 152.773 50.793 152.098 50.3008 151.582C49.8086 151.066 49.1289 150.801 48.2617 150.785H45.0391V156.141ZM63.332 158.754H60.5312V165H57.0156V147.938H63.3555C65.3711 147.938 66.9258 148.387 68.0195 149.285C69.1133 150.184 69.6602 151.453 69.6602 153.094C69.6602 154.258 69.4062 155.23 68.8984 156.012C68.3984 156.785 67.6367 157.402 66.6133 157.863L70.3047 164.836V165H66.5312L63.332 158.754ZM60.5312 155.906H63.3672C64.25 155.906 64.9336 155.684 65.418 155.238C65.9023 154.785 66.1445 154.164 66.1445 153.375C66.1445 152.57 65.9141 151.938 65.4531 151.477C65 151.016 64.3008 150.785 63.3555 150.785H60.5312V155.906ZM86.3594 156.855C86.3594 158.535 86.0625 160.008 85.4688 161.273C84.875 162.539 84.0234 163.516 82.9141 164.203C81.8125 164.891 80.5469 165.234 79.1172 165.234C77.7031 165.234 76.4414 164.895 75.332 164.215C74.2227 163.535 73.3633 162.566 72.7539 161.309C72.1445 160.043 71.8359 158.59 71.8281 156.949V156.105C71.8281 154.426 72.1289 152.949 72.7305 151.676C73.3398 150.395 74.1953 149.414 75.2969 148.734C76.4062 148.047 77.6719 147.703 79.0938 147.703C80.5156 147.703 81.7773 148.047 82.8789 148.734C83.9883 149.414 84.8438 150.395 85.4453 151.676C86.0547 152.949 86.3594 154.422 86.3594 156.094V156.855ZM82.7969 156.082C82.7969 154.293 82.4766 152.934 81.8359 152.004C81.1953 151.074 80.2812 150.609 79.0938 150.609C77.9141 150.609 77.0039 151.07 76.3633 151.992C75.7227 152.906 75.3984 154.25 75.3906 156.023V156.855C75.3906 158.598 75.7109 159.949 76.3516 160.91C76.9922 161.871 77.9141 162.352 79.1172 162.352C80.2969 162.352 81.2031 161.891 81.8359 160.969C82.4688 160.039 82.7891 158.688 82.7969 156.914V156.082ZM102.414 162.844C101.781 163.602 100.887 164.191 99.7305 164.613C98.5742 165.027 97.293 165.234 95.8867 165.234C94.4102 165.234 93.1133 164.914 91.9961 164.273C90.8867 163.625 90.0273 162.688 89.418 161.461C88.8164 160.234 88.5078 158.793 88.4922 157.137V155.977C88.4922 154.273 88.7773 152.801 89.3477 151.559C89.9258 150.309 90.7539 149.355 91.832 148.699C92.918 148.035 94.1875 147.703 95.6406 147.703C97.6641 147.703 99.2461 148.188 100.387 149.156C101.527 150.117 102.203 151.52 102.414 153.363H98.9922C98.8359 152.387 98.4883 151.672 97.9492 151.219C97.418 150.766 96.6836 150.539 95.7461 150.539C94.5508 150.539 93.6406 150.988 93.0156 151.887C92.3906 152.785 92.0742 154.121 92.0664 155.895V156.984C92.0664 158.773 92.4062 160.125 93.0859 161.039C93.7656 161.953 94.7617 162.41 96.0742 162.41C97.3945 162.41 98.3359 162.129 98.8984 161.566V158.625H95.6992V156.035H102.414V162.844ZM111.59 158.754H108.789V165H105.273V147.938H111.613C113.629 147.938 115.184 148.387 116.277 149.285C117.371 150.184 117.918 151.453 117.918 153.094C117.918 154.258 117.664 155.23 117.156 156.012C116.656 156.785 115.895 157.402 114.871 157.863L118.562 164.836V165H114.789L111.59 158.754ZM108.789 155.906H111.625C112.508 155.906 113.191 155.684 113.676 155.238C114.16 154.785 114.402 154.164 114.402 153.375C114.402 152.57 114.172 151.938 113.711 151.477C113.258 151.016 112.559 150.785 111.613 150.785H108.789V155.906ZM130.234 161.484H124.07L122.898 165H119.16L125.512 147.938H128.77L135.156 165H131.418L130.234 161.484ZM125.02 158.637H129.285L127.141 152.25L125.02 158.637ZM141.344 147.938L145.727 160.312L150.086 147.938H154.703V165H151.176V160.336L151.527 152.285L146.922 165H144.508L139.914 152.297L140.266 160.336V165H136.75V147.938H141.344ZM162.367 147.938L166.75 160.312L171.109 147.938H175.727V165H172.199V160.336L172.551 152.285L167.945 165H165.531L160.938 152.297L161.289 160.336V165H157.773V147.938H162.367ZM182.535 165H179.02V147.938H182.535V165ZM199.68 165H196.164L189.32 153.773V165H185.805V147.938H189.32L196.176 159.188V147.938H199.68V165ZM216.25 162.844C215.617 163.602 214.723 164.191 213.566 164.613C212.41 165.027 211.129 165.234 209.723 165.234C208.246 165.234 206.949 164.914 205.832 164.273C204.723 163.625 203.863 162.688 203.254 161.461C202.652 160.234 202.344 158.793 202.328 157.137V155.977C202.328 154.273 202.613 152.801 203.184 151.559C203.762 150.309 204.59 149.355 205.668 148.699C206.754 148.035 208.023 147.703 209.477 147.703C211.5 147.703 213.082 148.188 214.223 149.156C215.363 150.117 216.039 151.52 216.25 153.363H212.828C212.672 152.387 212.324 151.672 211.785 151.219C211.254 150.766 210.52 150.539 209.582 150.539C208.387 150.539 207.477 150.988 206.852 151.887C206.227 152.785 205.91 154.121 205.902 155.895V156.984C205.902 158.773 206.242 160.125 206.922 161.039C207.602 161.953 208.598 162.41 209.91 162.41C211.23 162.41 212.172 162.129 212.734 161.566V158.625H209.535V156.035H216.25V162.844Z" fill="#E4E4E4"/>
<path d="M8.40234 4.9375H11.918V16.75C11.918 17.8359 11.6758 18.7969 11.1914 19.6328C10.7148 20.4609 10.0391 21.1016 9.16406 21.5547C8.28906 22.0078 7.30078 22.2344 6.19922 22.2344C4.39453 22.2344 2.98828 21.7773 1.98047 20.8633C0.972656 19.9414 0.46875 18.6406 0.46875 16.9609H4.00781C4.00781 17.7969 4.18359 18.4141 4.53516 18.8125C4.88672 19.2109 5.44141 19.4102 6.19922 19.4102C6.87109 19.4102 7.40625 19.1797 7.80469 18.7188C8.20312 18.2578 8.40234 17.6016 8.40234 16.75V4.9375ZM23.7773 17.5234C23.7773 16.8594 23.543 16.3516 23.0742 16C22.6055 15.6406 21.7617 15.2656 20.543 14.875C19.3242 14.4766 18.3594 14.0859 17.6484 13.7031C15.7109 12.6562 14.7422 11.2461 14.7422 9.47266C14.7422 8.55078 15 7.73047 15.5156 7.01172C16.0391 6.28516 16.7852 5.71875 17.7539 5.3125C18.7305 4.90625 19.8242 4.70312 21.0352 4.70312C22.2539 4.70312 23.3398 4.92578 24.293 5.37109C25.2461 5.80859 25.9844 6.42969 26.5078 7.23438C27.0391 8.03906 27.3047 8.95312 27.3047 9.97656H23.7891C23.7891 9.19531 23.543 8.58984 23.0508 8.16016C22.5586 7.72266 21.8672 7.50391 20.9766 7.50391C20.1172 7.50391 19.4492 7.6875 18.9727 8.05469C18.4961 8.41406 18.2578 8.89062 18.2578 9.48438C18.2578 10.0391 18.5352 10.5039 19.0898 10.8789C19.6523 11.2539 20.4766 11.6055 21.5625 11.9336C23.5625 12.5352 25.0195 13.2812 25.9336 14.1719C26.8477 15.0625 27.3047 16.1719 27.3047 17.5C27.3047 18.9766 26.7461 20.1367 25.6289 20.9805C24.5117 21.8164 23.0078 22.2344 21.1172 22.2344C19.8047 22.2344 18.6094 21.9961 17.5312 21.5195C16.4531 21.0352 15.6289 20.375 15.0586 19.5391C14.4961 18.7031 14.2148 17.7344 14.2148 16.6328H17.7422C17.7422 18.5156 18.8672 19.457 21.1172 19.457C21.9531 19.457 22.6055 19.2891 23.0742 18.9531C23.543 18.6094 23.7773 18.1328 23.7773 17.5234Z" fill="#E4E4E4"/>
<path d="M235.367 306.785H230.141V321H226.625V306.785H221.469V303.938H235.367V306.785ZM246.043 316.523C246.043 315.859 245.809 315.352 245.34 315C244.871 314.641 244.027 314.266 242.809 313.875C241.59 313.477 240.625 313.086 239.914 312.703C237.977 311.656 237.008 310.246 237.008 308.473C237.008 307.551 237.266 306.73 237.781 306.012C238.305 305.285 239.051 304.719 240.02 304.312C240.996 303.906 242.09 303.703 243.301 303.703C244.52 303.703 245.605 303.926 246.559 304.371C247.512 304.809 248.25 305.43 248.773 306.234C249.305 307.039 249.57 307.953 249.57 308.977H246.055C246.055 308.195 245.809 307.59 245.316 307.16C244.824 306.723 244.133 306.504 243.242 306.504C242.383 306.504 241.715 306.688 241.238 307.055C240.762 307.414 240.523 307.891 240.523 308.484C240.523 309.039 240.801 309.504 241.355 309.879C241.918 310.254 242.742 310.605 243.828 310.934C245.828 311.535 247.285 312.281 248.199 313.172C249.113 314.062 249.57 315.172 249.57 316.5C249.57 317.977 249.012 319.137 247.895 319.98C246.777 320.816 245.273 321.234 243.383 321.234C242.07 321.234 240.875 320.996 239.797 320.52C238.719 320.035 237.895 319.375 237.324 318.539C236.762 317.703 236.48 316.734 236.48 315.633H240.008C240.008 317.516 241.133 318.457 243.383 318.457C244.219 318.457 244.871 318.289 245.34 317.953C245.809 317.609 246.043 317.133 246.043 316.523Z" fill="#E4E4E4"/>
<path d="M24 29V37L66.5 72V78.5" stroke="#FFE600" stroke-width="2"/>
<path d="M190 247V255L232.5 290V296.5" stroke="#00B2FF" stroke-width="2"/>
<path fill-rule="evenodd" clip-rule="evenodd" d="M129.274 278.547C196.251 278.547 250.547 224.251 250.547 157.274C250.547 90.2961 196.251 36 129.274 36C62.2961 36 8 90.2961 8 157.274C8 224.251 62.2961 278.547 129.274 278.547ZM129.274 248.126C179.45 248.126 220.126 207.45 220.126 157.274C220.126 107.097 179.45 66.4212 129.274 66.4212C79.0972 66.4212 38.4212 107.097 38.4212 157.274C38.4212 207.45 79.0972 248.126 129.274 248.126Z" fill="#E4E4E4"/>
<path d="M215.707 241.653L192.905 221.624C192.905 221.624 187.143 228.065 174.141 235.796C161.139 243.527 154.526 244.144 154.526 244.144L167.712 272.048C167.712 272.048 175.29 271.065 191.413 261.478C207.536 251.892 215.707 241.653 215.707 241.653Z" fill="#00B2FF"/>
<path d="M34 82L58.9999 100C58.9999 100 69.02 88 87.5 77C105.98 66.0001 129 66.5 129 66.5L129 36C129 36 103.5 34.217 73.4999 49.5C43.4999 64.783 34 82 34 82Z" fill="#FFE600"/>
</svg>
