<svg width="369" height="322" viewBox="0 0 369 322" fill="none" xmlns="http://www.w3.org/2000/svg">
<path d="M104.039 155.988V162H100.523V144.938H107.18C108.461 144.938 109.586 145.172 110.555 145.641C111.531 146.109 112.281 146.777 112.805 147.645C113.328 148.504 113.59 149.484 113.59 150.586C113.59 152.258 113.016 153.578 111.867 154.547C110.727 155.508 109.145 155.988 107.121 155.988H104.039ZM104.039 153.141H107.18C108.109 153.141 108.816 152.922 109.301 152.484C109.793 152.047 110.039 151.422 110.039 150.609C110.039 149.773 109.793 149.098 109.301 148.582C108.809 148.066 108.129 147.801 107.262 147.785H104.039V153.141ZM122.332 155.754H119.531V162H116.016V144.938H122.355C124.371 144.938 125.926 145.387 127.02 146.285C128.113 147.184 128.66 148.453 128.66 150.094C128.66 151.258 128.406 152.23 127.898 153.012C127.398 153.785 126.637 154.402 125.613 154.863L129.305 161.836V162H125.531L122.332 155.754ZM119.531 152.906H122.367C123.25 152.906 123.934 152.684 124.418 152.238C124.902 151.785 125.145 151.164 125.145 150.375C125.145 149.57 124.914 148.938 124.453 148.477C124 148.016 123.301 147.785 122.355 147.785H119.531V152.906ZM145.359 153.855C145.359 155.535 145.062 157.008 144.469 158.273C143.875 159.539 143.023 160.516 141.914 161.203C140.812 161.891 139.547 162.234 138.117 162.234C136.703 162.234 135.441 161.895 134.332 161.215C133.223 160.535 132.363 159.566 131.754 158.309C131.145 157.043 130.836 155.59 130.828 153.949V153.105C130.828 151.426 131.129 149.949 131.73 148.676C132.34 147.395 133.195 146.414 134.297 145.734C135.406 145.047 136.672 144.703 138.094 144.703C139.516 144.703 140.777 145.047 141.879 145.734C142.988 146.414 143.844 147.395 144.445 148.676C145.055 149.949 145.359 151.422 145.359 153.094V153.855ZM141.797 153.082C141.797 151.293 141.477 149.934 140.836 149.004C140.195 148.074 139.281 147.609 138.094 147.609C136.914 147.609 136.004 148.07 135.363 148.992C134.723 149.906 134.398 151.25 134.391 153.023V153.855C134.391 155.598 134.711 156.949 135.352 157.91C135.992 158.871 136.914 159.352 138.117 159.352C139.297 159.352 140.203 158.891 140.836 157.969C141.469 157.039 141.789 155.688 141.797 153.914V153.082ZM161.414 159.844C160.781 160.602 159.887 161.191 158.73 161.613C157.574 162.027 156.293 162.234 154.887 162.234C153.41 162.234 152.113 161.914 150.996 161.273C149.887 160.625 149.027 159.688 148.418 158.461C147.816 157.234 147.508 155.793 147.492 154.137V152.977C147.492 151.273 147.777 149.801 148.348 148.559C148.926 147.309 149.754 146.355 150.832 145.699C151.918 145.035 153.188 144.703 154.641 144.703C156.664 144.703 158.246 145.188 159.387 146.156C160.527 147.117 161.203 148.52 161.414 150.363H157.992C157.836 149.387 157.488 148.672 156.949 148.219C156.418 147.766 155.684 147.539 154.746 147.539C153.551 147.539 152.641 147.988 152.016 148.887C151.391 149.785 151.074 151.121 151.066 152.895V153.984C151.066 155.773 151.406 157.125 152.086 158.039C152.766 158.953 153.762 159.41 155.074 159.41C156.395 159.41 157.336 159.129 157.898 158.566V155.625H154.699V153.035H161.414V159.844ZM170.59 155.754H167.789V162H164.273V144.938H170.613C172.629 144.938 174.184 145.387 175.277 146.285C176.371 147.184 176.918 148.453 176.918 150.094C176.918 151.258 176.664 152.23 176.156 153.012C175.656 153.785 174.895 154.402 173.871 154.863L177.562 161.836V162H173.789L170.59 155.754ZM167.789 152.906H170.625C171.508 152.906 172.191 152.684 172.676 152.238C173.16 151.785 173.402 151.164 173.402 150.375C173.402 149.57 173.172 148.938 172.711 148.477C172.258 148.016 171.559 147.785 170.613 147.785H167.789V152.906ZM189.234 158.484H183.07L181.898 162H178.16L184.512 144.938H187.77L194.156 162H190.418L189.234 158.484ZM184.02 155.637H188.285L186.141 149.25L184.02 155.637ZM200.344 144.938L204.727 157.312L209.086 144.938H213.703V162H210.176V157.336L210.527 149.285L205.922 162H203.508L198.914 149.297L199.266 157.336V162H195.75V144.938H200.344ZM221.367 144.938L225.75 157.312L230.109 144.938H234.727V162H231.199V157.336L231.551 149.285L226.945 162H224.531L219.938 149.297L220.289 157.336V162H216.773V144.938H221.367ZM241.535 162H238.02V144.938H241.535V162ZM258.68 162H255.164L248.32 150.773V162H244.805V144.938H248.32L255.176 156.188V144.938H258.68V162ZM275.25 159.844C274.617 160.602 273.723 161.191 272.566 161.613C271.41 162.027 270.129 162.234 268.723 162.234C267.246 162.234 265.949 161.914 264.832 161.273C263.723 160.625 262.863 159.688 262.254 158.461C261.652 157.234 261.344 155.793 261.328 154.137V152.977C261.328 151.273 261.613 149.801 262.184 148.559C262.762 147.309 263.59 146.355 264.668 145.699C265.754 145.035 267.023 144.703 268.477 144.703C270.5 144.703 272.082 145.188 273.223 146.156C274.363 147.117 275.039 148.52 275.25 150.363H271.828C271.672 149.387 271.324 148.672 270.785 148.219C270.254 147.766 269.52 147.539 268.582 147.539C267.387 147.539 266.477 147.988 265.852 148.887C265.227 149.785 264.91 151.121 264.902 152.895V153.984C264.902 155.773 265.242 157.125 265.922 158.039C266.602 158.953 267.598 159.41 268.91 159.41C270.23 159.41 271.172 159.129 271.734 158.566V155.625H268.535V153.035H275.25V159.844Z" fill="black"/>
<path d="M27.4023 4.9375H30.918V16.75C30.918 17.8359 30.6758 18.7969 30.1914 19.6328C29.7148 20.4609 29.0391 21.1016 28.1641 21.5547C27.2891 22.0078 26.3008 22.2344 25.1992 22.2344C23.3945 22.2344 21.9883 21.7773 20.9805 20.8633C19.9727 19.9414 19.4688 18.6406 19.4688 16.9609H23.0078C23.0078 17.7969 23.1836 18.4141 23.5352 18.8125C23.8867 19.2109 24.4414 19.4102 25.1992 19.4102C25.8711 19.4102 26.4062 19.1797 26.8047 18.7188C27.2031 18.2578 27.4023 17.6016 27.4023 16.75V4.9375ZM43.3047 18.4844H37.1406L35.9688 22H32.2305L38.582 4.9375H41.8398L48.2266 22H44.4883L43.3047 18.4844ZM38.0898 15.6367H42.3555L40.2109 9.25L38.0898 15.6367ZM55.2109 17.7695L59.0781 4.9375H62.9922L57.0508 22H53.3828L47.4648 4.9375H51.3672L55.2109 17.7695ZM73.3516 18.4844H67.1875L66.0156 22H62.2773L68.6289 4.9375H71.8867L78.2734 22H74.5352L73.3516 18.4844ZM68.1367 15.6367H72.4023L70.2578 9.25L68.1367 15.6367ZM88.7148 17.5234C88.7148 16.8594 88.4805 16.3516 88.0117 16C87.543 15.6406 86.6992 15.2656 85.4805 14.875C84.2617 14.4766 83.2969 14.0859 82.5859 13.7031C80.6484 12.6562 79.6797 11.2461 79.6797 9.47266C79.6797 8.55078 79.9375 7.73047 80.4531 7.01172C80.9766 6.28516 81.7227 5.71875 82.6914 5.3125C83.668 4.90625 84.7617 4.70312 85.9727 4.70312C87.1914 4.70312 88.2773 4.92578 89.2305 5.37109C90.1836 5.80859 90.9219 6.42969 91.4453 7.23438C91.9766 8.03906 92.2422 8.95312 92.2422 9.97656H88.7266C88.7266 9.19531 88.4805 8.58984 87.9883 8.16016C87.4961 7.72266 86.8047 7.50391 85.9141 7.50391C85.0547 7.50391 84.3867 7.6875 83.9102 8.05469C83.4336 8.41406 83.1953 8.89062 83.1953 9.48438C83.1953 10.0391 83.4727 10.5039 84.0273 10.8789C84.5898 11.2539 85.4141 11.6055 86.5 11.9336C88.5 12.5352 89.957 13.2812 90.8711 14.1719C91.7852 15.0625 92.2422 16.1719 92.2422 17.5C92.2422 18.9766 91.6836 20.1367 90.5664 20.9805C89.4492 21.8164 87.9453 22.2344 86.0547 22.2344C84.7422 22.2344 83.5469 21.9961 82.4688 21.5195C81.3906 21.0352 80.5664 20.375 79.9961 19.5391C79.4336 18.7031 79.1523 17.7344 79.1523 16.6328H82.6797C82.6797 18.5156 83.8047 19.457 86.0547 19.457C86.8906 19.457 87.543 19.2891 88.0117 18.9531C88.4805 18.6094 88.7148 18.1328 88.7148 17.5234ZM108.027 16.3164C107.895 18.1523 107.215 19.5977 105.988 20.6523C104.77 21.707 103.16 22.2344 101.16 22.2344C98.9727 22.2344 97.25 21.5 95.9922 20.0312C94.7422 18.5547 94.1172 16.5312 94.1172 13.9609V12.918C94.1172 11.2773 94.4062 9.83203 94.9844 8.58203C95.5625 7.33203 96.3867 6.375 97.457 5.71094C98.5352 5.03906 99.7852 4.70312 101.207 4.70312C103.176 4.70312 104.762 5.23047 105.965 6.28516C107.168 7.33984 107.863 8.82031 108.051 10.7266H104.535C104.449 9.625 104.141 8.82812 103.609 8.33594C103.086 7.83594 102.285 7.58594 101.207 7.58594C100.035 7.58594 99.1562 8.00781 98.5703 8.85156C97.9922 9.6875 97.6953 10.9883 97.6797 12.7539V14.043C97.6797 15.8867 97.957 17.2344 98.5117 18.0859C99.0742 18.9375 99.957 19.3633 101.16 19.3633C102.246 19.3633 103.055 19.1172 103.586 18.625C104.125 18.125 104.434 17.3555 104.512 16.3164H108.027ZM116.652 15.7539H113.852V22H110.336V4.9375H116.676C118.691 4.9375 120.246 5.38672 121.34 6.28516C122.434 7.18359 122.98 8.45312 122.98 10.0938C122.98 11.2578 122.727 12.2305 122.219 13.0117C121.719 13.7852 120.957 14.4023 119.934 14.8633L123.625 21.8359V22H119.852L116.652 15.7539ZM113.852 12.9062H116.688C117.57 12.9062 118.254 12.6836 118.738 12.2383C119.223 11.7852 119.465 11.1641 119.465 10.375C119.465 9.57031 119.234 8.9375 118.773 8.47656C118.32 8.01562 117.621 7.78516 116.676 7.78516H113.852V12.9062ZM129.402 22H125.887V4.9375H129.402V22ZM136.188 15.9883V22H132.672V4.9375H139.328C140.609 4.9375 141.734 5.17188 142.703 5.64062C143.68 6.10938 144.43 6.77734 144.953 7.64453C145.477 8.50391 145.738 9.48438 145.738 10.5859C145.738 12.2578 145.164 13.5781 144.016 14.5469C142.875 15.5078 141.293 15.9883 139.27 15.9883H136.188ZM136.188 13.1406H139.328C140.258 13.1406 140.965 12.9219 141.449 12.4844C141.941 12.0469 142.188 11.4219 142.188 10.6094C142.188 9.77344 141.941 9.09766 141.449 8.58203C140.957 8.06641 140.277 7.80078 139.41 7.78516H136.188V13.1406ZM161.008 7.78516H155.781V22H152.266V7.78516H147.109V4.9375H161.008V7.78516Z" fill="black"/>
<path d="M238.367 303.785H233.141V318H229.625V303.785H224.469V300.938H238.367V303.785ZM246.453 308.625L250.004 300.938H253.848L248.246 311.812V318H244.672V311.812L239.07 300.938H242.926L246.453 308.625ZM258.922 311.988V318H255.406V300.938H262.062C263.344 300.938 264.469 301.172 265.438 301.641C266.414 302.109 267.164 302.777 267.688 303.645C268.211 304.504 268.473 305.484 268.473 306.586C268.473 308.258 267.898 309.578 266.75 310.547C265.609 311.508 264.027 311.988 262.004 311.988H258.922ZM258.922 309.141H262.062C262.992 309.141 263.699 308.922 264.184 308.484C264.676 308.047 264.922 307.422 264.922 306.609C264.922 305.773 264.676 305.098 264.184 304.582C263.691 304.066 263.012 303.801 262.145 303.785H258.922V309.141ZM281.164 310.605H274.414V315.176H282.336V318H270.898V300.938H282.312V303.785H274.414V307.852H281.164V310.605ZM293.246 313.523C293.246 312.859 293.012 312.352 292.543 312C292.074 311.641 291.23 311.266 290.012 310.875C288.793 310.477 287.828 310.086 287.117 309.703C285.18 308.656 284.211 307.246 284.211 305.473C284.211 304.551 284.469 303.73 284.984 303.012C285.508 302.285 286.254 301.719 287.223 301.312C288.199 300.906 289.293 300.703 290.504 300.703C291.723 300.703 292.809 300.926 293.762 301.371C294.715 301.809 295.453 302.43 295.977 303.234C296.508 304.039 296.773 304.953 296.773 305.977H293.258C293.258 305.195 293.012 304.59 292.52 304.16C292.027 303.723 291.336 303.504 290.445 303.504C289.586 303.504 288.918 303.688 288.441 304.055C287.965 304.414 287.727 304.891 287.727 305.484C287.727 306.039 288.004 306.504 288.559 306.879C289.121 307.254 289.945 307.605 291.031 307.934C293.031 308.535 294.488 309.281 295.402 310.172C296.316 311.062 296.773 312.172 296.773 313.5C296.773 314.977 296.215 316.137 295.098 316.98C293.98 317.816 292.477 318.234 290.586 318.234C289.273 318.234 288.078 317.996 287 317.52C285.922 317.035 285.098 316.375 284.527 315.539C283.965 314.703 283.684 313.734 283.684 312.633H287.211C287.211 314.516 288.336 315.457 290.586 315.457C291.422 315.457 292.074 315.289 292.543 314.953C293.012 314.609 293.246 314.133 293.246 313.523ZM312.559 312.316C312.426 314.152 311.746 315.598 310.52 316.652C309.301 317.707 307.691 318.234 305.691 318.234C303.504 318.234 301.781 317.5 300.523 316.031C299.273 314.555 298.648 312.531 298.648 309.961V308.918C298.648 307.277 298.938 305.832 299.516 304.582C300.094 303.332 300.918 302.375 301.988 301.711C303.066 301.039 304.316 300.703 305.738 300.703C307.707 300.703 309.293 301.23 310.496 302.285C311.699 303.34 312.395 304.82 312.582 306.727H309.066C308.98 305.625 308.672 304.828 308.141 304.336C307.617 303.836 306.816 303.586 305.738 303.586C304.566 303.586 303.688 304.008 303.102 304.852C302.523 305.688 302.227 306.988 302.211 308.754V310.043C302.211 311.887 302.488 313.234 303.043 314.086C303.605 314.938 304.488 315.363 305.691 315.363C306.777 315.363 307.586 315.117 308.117 314.625C308.656 314.125 308.965 313.355 309.043 312.316H312.559ZM321.184 311.754H318.383V318H314.867V300.938H321.207C323.223 300.938 324.777 301.387 325.871 302.285C326.965 303.184 327.512 304.453 327.512 306.094C327.512 307.258 327.258 308.23 326.75 309.012C326.25 309.785 325.488 310.402 324.465 310.863L328.156 317.836V318H324.383L321.184 311.754ZM318.383 308.906H321.219C322.102 308.906 322.785 308.684 323.27 308.238C323.754 307.785 323.996 307.164 323.996 306.375C323.996 305.57 323.766 304.938 323.305 304.477C322.852 304.016 322.152 303.785 321.207 303.785H318.383V308.906ZM333.934 318H330.418V300.938H333.934V318ZM340.719 311.988V318H337.203V300.938H343.859C345.141 300.938 346.266 301.172 347.234 301.641C348.211 302.109 348.961 302.777 349.484 303.645C350.008 304.504 350.27 305.484 350.27 306.586C350.27 308.258 349.695 309.578 348.547 310.547C347.406 311.508 345.824 311.988 343.801 311.988H340.719ZM340.719 309.141H343.859C344.789 309.141 345.496 308.922 345.98 308.484C346.473 308.047 346.719 307.422 346.719 306.609C346.719 305.773 346.473 305.098 345.98 304.582C345.488 304.066 344.809 303.801 343.941 303.785H340.719V309.141ZM365.539 303.785H360.312V318H356.797V303.785H351.641V300.938H365.539V303.785Z" fill="black"/>
<path d="M7.83984 287.754H5.03906V294H1.52344V276.938H7.86328C9.87891 276.938 11.4336 277.387 12.5273 278.285C13.6211 279.184 14.168 280.453 14.168 282.094C14.168 283.258 13.9141 284.23 13.4062 285.012C12.9062 285.785 12.1445 286.402 11.1211 286.863L14.8125 293.836V294H11.0391L7.83984 287.754ZM5.03906 284.906H7.875C8.75781 284.906 9.44141 284.684 9.92578 284.238C10.4102 283.785 10.6523 283.164 10.6523 282.375C10.6523 281.57 10.4219 280.938 9.96094 280.477C9.50781 280.016 8.80859 279.785 7.86328 279.785H5.03906V284.906ZM27.1172 286.605H20.3672V291.176H28.2891V294H16.8516V276.938H28.2656V279.785H20.3672V283.852H27.1172V286.605ZM39.9844 290.484H33.8203L32.6484 294H28.9102L35.2617 276.938H38.5195L44.9062 294H41.168L39.9844 290.484ZM34.7695 287.637H39.0352L36.8906 281.25L34.7695 287.637ZM59.6367 288.316C59.5039 290.152 58.8242 291.598 57.5977 292.652C56.3789 293.707 54.7695 294.234 52.7695 294.234C50.582 294.234 48.8594 293.5 47.6016 292.031C46.3516 290.555 45.7266 288.531 45.7266 285.961V284.918C45.7266 283.277 46.0156 281.832 46.5938 280.582C47.1719 279.332 47.9961 278.375 49.0664 277.711C50.1445 277.039 51.3945 276.703 52.8164 276.703C54.7852 276.703 56.3711 277.23 57.5742 278.285C58.7773 279.34 59.4727 280.82 59.6602 282.727H56.1445C56.0586 281.625 55.75 280.828 55.2188 280.336C54.6953 279.836 53.8945 279.586 52.8164 279.586C51.6445 279.586 50.7656 280.008 50.1797 280.852C49.6016 281.688 49.3047 282.988 49.2891 284.754V286.043C49.2891 287.887 49.5664 289.234 50.1211 290.086C50.6836 290.938 51.5664 291.363 52.7695 291.363C53.8555 291.363 54.6641 291.117 55.1953 290.625C55.7344 290.125 56.043 289.355 56.1211 288.316H59.6367ZM74.4375 279.785H69.2109V294H65.6953V279.785H60.5391V276.938H74.4375V279.785Z" fill="black"/>
<path d="M83 26V34L125.5 69V75.5" stroke="#FFE600" stroke-width="2"/>
<path d="M249 244V252L291.5 287V293.5" stroke="#00B2FF" stroke-width="2"/>
<path d="M124.464 243L116.47 243.306L83.1197 287.112L76.6244 287.361" stroke="#00F0FF" stroke-width="2"/>
<path fill-rule="evenodd" clip-rule="evenodd" d="M188.274 275.547C255.251 275.547 309.547 221.251 309.547 154.274C309.547 87.2961 255.251 33 188.274 33C121.296 33 67 87.2961 67 154.274C67 221.251 121.296 275.547 188.274 275.547ZM188.274 245.126C238.45 245.126 279.126 204.45 279.126 154.274C279.126 104.097 238.45 63.4212 188.274 63.4212C138.097 63.4212 97.4212 104.097 97.4212 154.274C97.4212 204.45 138.097 245.126 188.274 245.126Z" fill="#FFE500"/>
<path d="M300.117 201.504L271.945 190.077C271.945 190.077 262.371 212.669 236.599 229.781C210.828 246.892 186 244.5 186 244.5L185.5 275.5C185.5 275.5 232.098 278.102 265.24 248.809C298.381 219.517 300.117 201.504 300.117 201.504Z" fill="#00A3FF"/>
<path d="M185.5 275.5L186 244.5C186 244.5 160.543 244.024 135.324 226.108C110.104 208.192 103.035 184.293 103.035 184.293L73.8178 194.059C73.8178 194.059 78.5 223.608 115 251C151.5 278.392 185.5 275.5 185.5 275.5Z" fill="#00F0FF"/>
</svg>
