<svg width="328" height="330" viewBox="0 0 328 330" fill="none" xmlns="http://www.w3.org/2000/svg">
<path d="M129.039 163.176H136.504V166H125.523V148.938H129.039V163.176ZM148.398 162.484H142.234L141.062 166H137.324L143.676 148.938H146.934L153.32 166H149.582L148.398 162.484ZM143.184 159.637H147.449L145.305 153.25L143.184 159.637ZM159.039 156.625L162.59 148.938H166.434L160.832 159.812V166H157.258V159.812L151.656 148.938H155.512L159.039 156.625ZM181.656 157.855C181.656 159.535 181.359 161.008 180.766 162.273C180.172 163.539 179.32 164.516 178.211 165.203C177.109 165.891 175.844 166.234 174.414 166.234C173 166.234 171.738 165.895 170.629 165.215C169.52 164.535 168.66 163.566 168.051 162.309C167.441 161.043 167.133 159.59 167.125 157.949V157.105C167.125 155.426 167.426 153.949 168.027 152.676C168.637 151.395 169.492 150.414 170.594 149.734C171.703 149.047 172.969 148.703 174.391 148.703C175.812 148.703 177.074 149.047 178.176 149.734C179.285 150.414 180.141 151.395 180.742 152.676C181.352 153.949 181.656 155.422 181.656 157.094V157.855ZM178.094 157.082C178.094 155.293 177.773 153.934 177.133 153.004C176.492 152.074 175.578 151.609 174.391 151.609C173.211 151.609 172.301 152.07 171.66 152.992C171.02 153.906 170.695 155.25 170.688 157.023V157.855C170.688 159.598 171.008 160.949 171.648 161.91C172.289 162.871 173.211 163.352 174.414 163.352C175.594 163.352 176.5 162.891 177.133 161.969C177.766 161.039 178.086 159.688 178.094 157.914V157.082ZM197.125 148.938V160.176C197.125 162.043 196.539 163.52 195.367 164.605C194.203 165.691 192.609 166.234 190.586 166.234C188.594 166.234 187.012 165.707 185.84 164.652C184.668 163.598 184.07 162.148 184.047 160.305V148.938H187.562V160.199C187.562 161.316 187.828 162.133 188.359 162.648C188.898 163.156 189.641 163.41 190.586 163.41C192.562 163.41 193.566 162.371 193.598 160.293V148.938H197.125ZM212.852 151.785H207.625V166H204.109V151.785H198.953V148.938H212.852V151.785Z" fill="#E4E4E4"/>
<path d="M5.26172 22H1.74609V4.9375H5.26172V22ZM12.0469 19.1758H19.5117V22H8.53125V4.9375H12.0469V19.1758ZM25.0547 19.1758H32.5195V22H21.5391V4.9375H25.0547V19.1758ZM47.1797 4.9375V16.1758C47.1797 18.043 46.5938 19.5195 45.4219 20.6055C44.2578 21.6914 42.6641 22.2344 40.6406 22.2344C38.6484 22.2344 37.0664 21.707 35.8945 20.6523C34.7227 19.5977 34.125 18.1484 34.1016 16.3047V4.9375H37.6172V16.1992C37.6172 17.3164 37.8828 18.1328 38.4141 18.6484C38.9531 19.1562 39.6953 19.4102 40.6406 19.4102C42.6172 19.4102 43.6211 18.3711 43.6523 16.293V4.9375H47.1797ZM58.9102 17.5234C58.9102 16.8594 58.6758 16.3516 58.207 16C57.7383 15.6406 56.8945 15.2656 55.6758 14.875C54.457 14.4766 53.4922 14.0859 52.7812 13.7031C50.8438 12.6562 49.875 11.2461 49.875 9.47266C49.875 8.55078 50.1328 7.73047 50.6484 7.01172C51.1719 6.28516 51.918 5.71875 52.8867 5.3125C53.8633 4.90625 54.957 4.70312 56.168 4.70312C57.3867 4.70312 58.4727 4.92578 59.4258 5.37109C60.3789 5.80859 61.1172 6.42969 61.6406 7.23438C62.1719 8.03906 62.4375 8.95312 62.4375 9.97656H58.9219C58.9219 9.19531 58.6758 8.58984 58.1836 8.16016C57.6914 7.72266 57 7.50391 56.1094 7.50391C55.25 7.50391 54.582 7.6875 54.1055 8.05469C53.6289 8.41406 53.3906 8.89062 53.3906 9.48438C53.3906 10.0391 53.668 10.5039 54.2227 10.8789C54.7852 11.2539 55.6094 11.6055 56.6953 11.9336C58.6953 12.5352 60.1523 13.2812 61.0664 14.1719C61.9805 15.0625 62.4375 16.1719 62.4375 17.5C62.4375 18.9766 61.8789 20.1367 60.7617 20.9805C59.6445 21.8164 58.1406 22.2344 56.25 22.2344C54.9375 22.2344 53.7422 21.9961 52.6641 21.5195C51.5859 21.0352 50.7617 20.375 50.1914 19.5391C49.6289 18.7031 49.3477 17.7344 49.3477 16.6328H52.875C52.875 18.5156 54 19.457 56.25 19.457C57.0859 19.457 57.7383 19.2891 58.207 18.9531C58.6758 18.6094 58.9102 18.1328 58.9102 17.5234ZM77.6719 7.78516H72.4453V22H68.9297V7.78516H63.7734V4.9375H77.6719V7.78516ZM86.0039 15.7539H83.2031V22H79.6875V4.9375H86.0273C88.043 4.9375 89.5977 5.38672 90.6914 6.28516C91.7852 7.18359 92.332 8.45312 92.332 10.0938C92.332 11.2578 92.0781 12.2305 91.5703 13.0117C91.0703 13.7852 90.3086 14.4023 89.2852 14.8633L92.9766 21.8359V22H89.2031L86.0039 15.7539ZM83.2031 12.9062H86.0391C86.9219 12.9062 87.6055 12.6836 88.0898 12.2383C88.5742 11.7852 88.8164 11.1641 88.8164 10.375C88.8164 9.57031 88.5859 8.9375 88.125 8.47656C87.6719 8.01562 86.9727 7.78516 86.0273 7.78516H83.2031V12.9062ZM104.648 18.4844H98.4844L97.3125 22H93.5742L99.9258 4.9375H103.184L109.57 22H105.832L104.648 18.4844ZM99.4336 15.6367H103.699L101.555 9.25L99.4336 15.6367ZM122.602 7.78516H117.375V22H113.859V7.78516H108.703V4.9375H122.602V7.78516ZM138.305 13.8555C138.305 15.5352 138.008 17.0078 137.414 18.2734C136.82 19.5391 135.969 20.5156 134.859 21.2031C133.758 21.8906 132.492 22.2344 131.062 22.2344C129.648 22.2344 128.387 21.8945 127.277 21.2148C126.168 20.5352 125.309 19.5664 124.699 18.3086C124.09 17.043 123.781 15.5898 123.773 13.9492V13.1055C123.773 11.4258 124.074 9.94922 124.676 8.67578C125.285 7.39453 126.141 6.41406 127.242 5.73438C128.352 5.04687 129.617 4.70312 131.039 4.70312C132.461 4.70312 133.723 5.04687 134.824 5.73438C135.934 6.41406 136.789 7.39453 137.391 8.67578C138 9.94922 138.305 11.4219 138.305 13.0938V13.8555ZM134.742 13.082C134.742 11.293 134.422 9.93359 133.781 9.00391C133.141 8.07422 132.227 7.60938 131.039 7.60938C129.859 7.60938 128.949 8.07031 128.309 8.99219C127.668 9.90625 127.344 11.25 127.336 13.0234V13.8555C127.336 15.5977 127.656 16.9492 128.297 17.9102C128.938 18.8711 129.859 19.3516 131.062 19.3516C132.242 19.3516 133.148 18.8906 133.781 17.9688C134.414 17.0391 134.734 15.6875 134.742 13.9141V13.082ZM147.176 15.7539H144.375V22H140.859V4.9375H147.199C149.215 4.9375 150.77 5.38672 151.863 6.28516C152.957 7.18359 153.504 8.45312 153.504 10.0938C153.504 11.2578 153.25 12.2305 152.742 13.0117C152.242 13.7852 151.48 14.4023 150.457 14.8633L154.148 21.8359V22H150.375L147.176 15.7539ZM144.375 12.9062H147.211C148.094 12.9062 148.777 12.6836 149.262 12.2383C149.746 11.7852 149.988 11.1641 149.988 10.375C149.988 9.57031 149.758 8.9375 149.297 8.47656C148.844 8.01562 148.145 7.78516 147.199 7.78516H144.375V12.9062Z" fill="#E4E4E4"/>
<path d="M223.262 324H219.746V306.938H223.262V324ZM240.406 324H236.891L230.047 312.773V324H226.531V306.938H230.047L236.902 318.188V306.938H240.406V324ZM243.477 324V306.938H248.727C250.227 306.938 251.566 307.277 252.746 307.957C253.934 308.629 254.859 309.59 255.523 310.84C256.188 312.082 256.52 313.496 256.52 315.082V315.867C256.52 317.453 256.191 318.863 255.535 320.098C254.887 321.332 253.969 322.289 252.781 322.969C251.594 323.648 250.254 323.992 248.762 324H243.477ZM246.992 309.785V321.176H248.691C250.066 321.176 251.117 320.727 251.844 319.828C252.57 318.93 252.941 317.645 252.957 315.973V315.07C252.957 313.336 252.598 312.023 251.879 311.133C251.16 310.234 250.109 309.785 248.727 309.785H246.992ZM269.352 316.605H262.602V321.176H270.523V324H259.086V306.938H270.5V309.785H262.602V313.852H269.352V316.605ZM281.434 319.523C281.434 318.859 281.199 318.352 280.73 318C280.262 317.641 279.418 317.266 278.199 316.875C276.98 316.477 276.016 316.086 275.305 315.703C273.367 314.656 272.398 313.246 272.398 311.473C272.398 310.551 272.656 309.73 273.172 309.012C273.695 308.285 274.441 307.719 275.41 307.312C276.387 306.906 277.48 306.703 278.691 306.703C279.91 306.703 280.996 306.926 281.949 307.371C282.902 307.809 283.641 308.43 284.164 309.234C284.695 310.039 284.961 310.953 284.961 311.977H281.445C281.445 311.195 281.199 310.59 280.707 310.16C280.215 309.723 279.523 309.504 278.633 309.504C277.773 309.504 277.105 309.688 276.629 310.055C276.152 310.414 275.914 310.891 275.914 311.484C275.914 312.039 276.191 312.504 276.746 312.879C277.309 313.254 278.133 313.605 279.219 313.934C281.219 314.535 282.676 315.281 283.59 316.172C284.504 317.062 284.961 318.172 284.961 319.5C284.961 320.977 284.402 322.137 283.285 322.98C282.168 323.816 280.664 324.234 278.773 324.234C277.461 324.234 276.266 323.996 275.188 323.52C274.109 323.035 273.285 322.375 272.715 321.539C272.152 320.703 271.871 319.734 271.871 318.633H275.398C275.398 320.516 276.523 321.457 278.773 321.457C279.609 321.457 280.262 321.289 280.73 320.953C281.199 320.609 281.434 320.133 281.434 319.523ZM291.09 324H287.574V306.938H291.09V324ZM307.859 321.844C307.227 322.602 306.332 323.191 305.176 323.613C304.02 324.027 302.738 324.234 301.332 324.234C299.855 324.234 298.559 323.914 297.441 323.273C296.332 322.625 295.473 321.688 294.863 320.461C294.262 319.234 293.953 317.793 293.938 316.137V314.977C293.938 313.273 294.223 311.801 294.793 310.559C295.371 309.309 296.199 308.355 297.277 307.699C298.363 307.035 299.633 306.703 301.086 306.703C303.109 306.703 304.691 307.188 305.832 308.156C306.973 309.117 307.648 310.52 307.859 312.363H304.438C304.281 311.387 303.934 310.672 303.395 310.219C302.863 309.766 302.129 309.539 301.191 309.539C299.996 309.539 299.086 309.988 298.461 310.887C297.836 311.785 297.52 313.121 297.512 314.895V315.984C297.512 317.773 297.852 319.125 298.531 320.039C299.211 320.953 300.207 321.41 301.52 321.41C302.84 321.41 303.781 321.129 304.344 320.566V317.625H301.145V315.035H307.859V321.844ZM324.594 324H321.078L314.234 312.773V324H310.719V306.938H314.234L321.09 318.188V306.938H324.594V324Z" fill="#E4E4E4"/>
<path fill-rule="evenodd" clip-rule="evenodd" d="M169 36C102.148 36.1476 48 90.387 48 157.273C48 224.16 102.148 278.399 169 278.547V248.125C118.949 247.978 78.4212 207.359 78.4212 157.273C78.4212 107.188 118.949 66.5689 169 66.4213V36Z" fill="#00F0FF"/>
<path fill-rule="evenodd" clip-rule="evenodd" d="M169 278.547C235.852 278.399 290 224.16 290 157.273C290 90.387 235.852 36.1477 169 36V66.4213C219.051 66.5688 259.579 107.188 259.579 157.273C259.579 207.359 219.051 247.978 169 248.125V278.547Z" fill="#FFA8DC"/>
<path d="M64 29V37L106.5 72V78.5" stroke="#00F0FF" stroke-width="2"/>
<path d="M230 247V255L272.5 290V296.5" stroke="#FFA8DC" stroke-width="2"/>
</svg>
