<svg width="409" height="325" viewBox="0 0 409 325" fill="none" xmlns="http://www.w3.org/2000/svg">
<path d="M175.438 142.938V154.176C175.438 156.043 174.852 157.52 173.68 158.605C172.516 159.691 170.922 160.234 168.898 160.234C166.906 160.234 165.324 159.707 164.152 158.652C162.98 157.598 162.383 156.148 162.359 154.305V142.938H165.875V154.199C165.875 155.316 166.141 156.133 166.672 156.648C167.211 157.156 167.953 157.41 168.898 157.41C170.875 157.41 171.879 156.371 171.91 154.293V142.938H175.438ZM182.059 160H178.543V142.938H182.059V160Z" fill="black"/>
<path d="M5.03906 15.9883V22H1.52344V4.9375H8.17969C9.46094 4.9375 10.5859 5.17188 11.5547 5.64062C12.5312 6.10938 13.2812 6.77734 13.8047 7.64453C14.3281 8.50391 14.5898 9.48438 14.5898 10.5859C14.5898 12.2578 14.0156 13.5781 12.8672 14.5469C11.7266 15.5078 10.1445 15.9883 8.12109 15.9883H5.03906ZM5.03906 13.1406H8.17969C9.10938 13.1406 9.81641 12.9219 10.3008 12.4844C10.793 12.0469 11.0391 11.4219 11.0391 10.6094C11.0391 9.77344 10.793 9.09766 10.3008 8.58203C9.80859 8.06641 9.12891 7.80078 8.26172 7.78516H5.03906V13.1406ZM30.9023 22H27.3867V14.6875H20.5312V22H17.0156V4.9375H20.5312V11.8516H27.3867V4.9375H30.9023V22ZM48 13.8555C48 15.5352 47.7031 17.0078 47.1094 18.2734C46.5156 19.5391 45.6641 20.5156 44.5547 21.2031C43.4531 21.8906 42.1875 22.2344 40.7578 22.2344C39.3438 22.2344 38.082 21.8945 36.9727 21.2148C35.8633 20.5352 35.0039 19.5664 34.3945 18.3086C33.7852 17.043 33.4766 15.5898 33.4688 13.9492V13.1055C33.4688 11.4258 33.7695 9.94922 34.3711 8.67578C34.9805 7.39453 35.8359 6.41406 36.9375 5.73438C38.0469 5.04687 39.3125 4.70312 40.7344 4.70312C42.1562 4.70312 43.418 5.04687 44.5195 5.73438C45.6289 6.41406 46.4844 7.39453 47.0859 8.67578C47.6953 9.94922 48 11.4219 48 13.0938V13.8555ZM44.4375 13.082C44.4375 11.293 44.1172 9.93359 43.4766 9.00391C42.8359 8.07422 41.9219 7.60938 40.7344 7.60938C39.5547 7.60938 38.6445 8.07031 38.0039 8.99219C37.3633 9.90625 37.0391 11.25 37.0312 13.0234V13.8555C37.0312 15.5977 37.3516 16.9492 37.9922 17.9102C38.6328 18.8711 39.5547 19.3516 40.7578 19.3516C41.9375 19.3516 42.8438 18.8906 43.4766 17.9688C44.1094 17.0391 44.4297 15.6875 44.4375 13.9141V13.082ZM62.3906 7.78516H57.1641V22H53.6484V7.78516H48.4922V4.9375H62.3906V7.78516ZM78.0938 13.8555C78.0938 15.5352 77.7969 17.0078 77.2031 18.2734C76.6094 19.5391 75.7578 20.5156 74.6484 21.2031C73.5469 21.8906 72.2812 22.2344 70.8516 22.2344C69.4375 22.2344 68.1758 21.8945 67.0664 21.2148C65.957 20.5352 65.0977 19.5664 64.4883 18.3086C63.8789 17.043 63.5703 15.5898 63.5625 13.9492V13.1055C63.5625 11.4258 63.8633 9.94922 64.4648 8.67578C65.0742 7.39453 65.9297 6.41406 67.0312 5.73438C68.1406 5.04687 69.4062 4.70312 70.8281 4.70312C72.25 4.70312 73.5117 5.04687 74.6133 5.73438C75.7227 6.41406 76.5781 7.39453 77.1797 8.67578C77.7891 9.94922 78.0938 11.4219 78.0938 13.0938V13.8555ZM74.5312 13.082C74.5312 11.293 74.2109 9.93359 73.5703 9.00391C72.9297 8.07422 72.0156 7.60938 70.8281 7.60938C69.6484 7.60938 68.7383 8.07031 68.0977 8.99219C67.457 9.90625 67.1328 11.25 67.125 13.0234V13.8555C67.125 15.5977 67.4453 16.9492 68.0859 17.9102C68.7266 18.8711 69.6484 19.3516 70.8516 19.3516C72.0312 19.3516 72.9375 18.8906 73.5703 17.9688C74.2031 17.0391 74.5234 15.6875 74.5312 13.9141V13.082ZM89.4961 17.5234C89.4961 16.8594 89.2617 16.3516 88.793 16C88.3242 15.6406 87.4805 15.2656 86.2617 14.875C85.043 14.4766 84.0781 14.0859 83.3672 13.7031C81.4297 12.6562 80.4609 11.2461 80.4609 9.47266C80.4609 8.55078 80.7188 7.73047 81.2344 7.01172C81.7578 6.28516 82.5039 5.71875 83.4727 5.3125C84.4492 4.90625 85.543 4.70312 86.7539 4.70312C87.9727 4.70312 89.0586 4.92578 90.0117 5.37109C90.9648 5.80859 91.7031 6.42969 92.2266 7.23438C92.7578 8.03906 93.0234 8.95312 93.0234 9.97656H89.5078C89.5078 9.19531 89.2617 8.58984 88.7695 8.16016C88.2773 7.72266 87.5859 7.50391 86.6953 7.50391C85.8359 7.50391 85.168 7.6875 84.6914 8.05469C84.2148 8.41406 83.9766 8.89062 83.9766 9.48438C83.9766 10.0391 84.2539 10.5039 84.8086 10.8789C85.3711 11.2539 86.1953 11.6055 87.2812 11.9336C89.2812 12.5352 90.7383 13.2812 91.6523 14.1719C92.5664 15.0625 93.0234 16.1719 93.0234 17.5C93.0234 18.9766 92.4648 20.1367 91.3477 20.9805C90.2305 21.8164 88.7266 22.2344 86.8359 22.2344C85.5234 22.2344 84.3281 21.9961 83.25 21.5195C82.1719 21.0352 81.3477 20.375 80.7773 19.5391C80.2148 18.7031 79.9336 17.7344 79.9336 16.6328H83.4609C83.4609 18.5156 84.5859 19.457 86.8359 19.457C87.6719 19.457 88.3242 19.2891 88.793 18.9531C89.2617 18.6094 89.4961 18.1328 89.4961 17.5234ZM109.301 22H105.785V14.6875H98.9297V22H95.4141V4.9375H98.9297V11.8516H105.785V4.9375H109.301V22ZM126.398 13.8555C126.398 15.5352 126.102 17.0078 125.508 18.2734C124.914 19.5391 124.062 20.5156 122.953 21.2031C121.852 21.8906 120.586 22.2344 119.156 22.2344C117.742 22.2344 116.48 21.8945 115.371 21.2148C114.262 20.5352 113.402 19.5664 112.793 18.3086C112.184 17.043 111.875 15.5898 111.867 13.9492V13.1055C111.867 11.4258 112.168 9.94922 112.77 8.67578C113.379 7.39453 114.234 6.41406 115.336 5.73438C116.445 5.04687 117.711 4.70312 119.133 4.70312C120.555 4.70312 121.816 5.04687 122.918 5.73438C124.027 6.41406 124.883 7.39453 125.484 8.67578C126.094 9.94922 126.398 11.4219 126.398 13.0938V13.8555ZM122.836 13.082C122.836 11.293 122.516 9.93359 121.875 9.00391C121.234 8.07422 120.32 7.60938 119.133 7.60938C117.953 7.60938 117.043 8.07031 116.402 8.99219C115.762 9.90625 115.438 11.25 115.43 13.0234V13.8555C115.43 15.5977 115.75 16.9492 116.391 17.9102C117.031 18.8711 117.953 19.3516 119.156 19.3516C120.336 19.3516 121.242 18.8906 121.875 17.9688C122.508 17.0391 122.828 15.6875 122.836 13.9141V13.082ZM132.469 15.9883V22H128.953V4.9375H135.609C136.891 4.9375 138.016 5.17188 138.984 5.64062C139.961 6.10938 140.711 6.77734 141.234 7.64453C141.758 8.50391 142.02 9.48438 142.02 10.5859C142.02 12.2578 141.445 13.5781 140.297 14.5469C139.156 15.5078 137.574 15.9883 135.551 15.9883H132.469ZM132.469 13.1406H135.609C136.539 13.1406 137.246 12.9219 137.73 12.4844C138.223 12.0469 138.469 11.4219 138.469 10.6094C138.469 9.77344 138.223 9.09766 137.73 8.58203C137.238 8.06641 136.559 7.80078 135.691 7.78516H132.469V13.1406Z" fill="black"/>
<path d="M340.789 126.027H334.039V133H330.523V115.938H341.633V118.785H334.039V123.191H340.789V126.027ZM347.41 133H343.895V115.938H347.41V133ZM364.18 130.844C363.547 131.602 362.652 132.191 361.496 132.613C360.34 133.027 359.059 133.234 357.652 133.234C356.176 133.234 354.879 132.914 353.762 132.273C352.652 131.625 351.793 130.688 351.184 129.461C350.582 128.234 350.273 126.793 350.258 125.137V123.977C350.258 122.273 350.543 120.801 351.113 119.559C351.691 118.309 352.52 117.355 353.598 116.699C354.684 116.035 355.953 115.703 357.406 115.703C359.43 115.703 361.012 116.188 362.152 117.156C363.293 118.117 363.969 119.52 364.18 121.363H360.758C360.602 120.387 360.254 119.672 359.715 119.219C359.184 118.766 358.449 118.539 357.512 118.539C356.316 118.539 355.406 118.988 354.781 119.887C354.156 120.785 353.84 122.121 353.832 123.895V124.984C353.832 126.773 354.172 128.125 354.852 129.039C355.531 129.953 356.527 130.41 357.84 130.41C359.16 130.41 360.102 130.129 360.664 129.566V126.625H357.465V124.035H364.18V130.844ZM371.633 115.938L376.016 128.312L380.375 115.938H384.992V133H381.465V128.336L381.816 120.285L377.211 133H374.797L370.203 120.297L370.555 128.336V133H367.039V115.938H371.633ZM397.906 129.484H391.742L390.57 133H386.832L393.184 115.938H396.441L402.828 133H399.09L397.906 129.484ZM392.691 126.637H396.957L394.812 120.25L392.691 126.637Z" fill="black"/>
<path d="M221.262 319H217.746V301.938H221.262V319ZM238.406 319H234.891L228.047 307.773V319H224.531V301.938H228.047L234.902 313.188V301.938H238.406V319ZM247.781 314.77L251.648 301.938H255.562L249.621 319H245.953L240.035 301.938H243.938L247.781 314.77ZM260.918 319H257.402V301.938H260.918V319ZM273.035 314.523C273.035 313.859 272.801 313.352 272.332 313C271.863 312.641 271.02 312.266 269.801 311.875C268.582 311.477 267.617 311.086 266.906 310.703C264.969 309.656 264 308.246 264 306.473C264 305.551 264.258 304.73 264.773 304.012C265.297 303.285 266.043 302.719 267.012 302.312C267.988 301.906 269.082 301.703 270.293 301.703C271.512 301.703 272.598 301.926 273.551 302.371C274.504 302.809 275.242 303.43 275.766 304.234C276.297 305.039 276.562 305.953 276.562 306.977H273.047C273.047 306.195 272.801 305.59 272.309 305.16C271.816 304.723 271.125 304.504 270.234 304.504C269.375 304.504 268.707 304.688 268.23 305.055C267.754 305.414 267.516 305.891 267.516 306.484C267.516 307.039 267.793 307.504 268.348 307.879C268.91 308.254 269.734 308.605 270.82 308.934C272.82 309.535 274.277 310.281 275.191 311.172C276.105 312.062 276.562 313.172 276.562 314.5C276.562 315.977 276.004 317.137 274.887 317.98C273.77 318.816 272.266 319.234 270.375 319.234C269.062 319.234 267.867 318.996 266.789 318.52C265.711 318.035 264.887 317.375 264.316 316.539C263.754 315.703 263.473 314.734 263.473 313.633H267C267 315.516 268.125 316.457 270.375 316.457C271.211 316.457 271.863 316.289 272.332 315.953C272.801 315.609 273.035 315.133 273.035 314.523ZM282.691 319H279.176V301.938H282.691V319ZM299.977 310.855C299.977 312.535 299.68 314.008 299.086 315.273C298.492 316.539 297.641 317.516 296.531 318.203C295.43 318.891 294.164 319.234 292.734 319.234C291.32 319.234 290.059 318.895 288.949 318.215C287.84 317.535 286.98 316.566 286.371 315.309C285.762 314.043 285.453 312.59 285.445 310.949V310.105C285.445 308.426 285.746 306.949 286.348 305.676C286.957 304.395 287.812 303.414 288.914 302.734C290.023 302.047 291.289 301.703 292.711 301.703C294.133 301.703 295.395 302.047 296.496 302.734C297.605 303.414 298.461 304.395 299.062 305.676C299.672 306.949 299.977 308.422 299.977 310.094V310.855ZM296.414 310.082C296.414 308.293 296.094 306.934 295.453 306.004C294.812 305.074 293.898 304.609 292.711 304.609C291.531 304.609 290.621 305.07 289.98 305.992C289.34 306.906 289.016 308.25 289.008 310.023V310.855C289.008 312.598 289.328 313.949 289.969 314.91C290.609 315.871 291.531 316.352 292.734 316.352C293.914 316.352 294.82 315.891 295.453 314.969C296.086 314.039 296.406 312.688 296.414 310.914V310.082ZM316.406 319H312.891L306.047 307.773V319H302.531V301.938H306.047L312.902 313.188V301.938H316.406V319Z" fill="black"/>
<path fill-rule="evenodd" clip-rule="evenodd" d="M52.4527 151.274C52.4527 84.2961 106.749 30 173.726 30C240.704 30 295 84.2961 295 151.274C295 218.251 240.704 272.547 173.726 272.547C106.749 272.547 52.4527 218.251 52.4527 151.274ZM82.8739 151.274C82.8739 101.097 123.55 60.4212 173.726 60.4212C223.903 60.4212 264.579 101.097 264.579 151.274C264.579 201.45 223.903 242.126 173.726 242.126C123.55 242.126 82.8739 201.45 82.8739 151.274Z" fill="#00A3FF"/>
<path d="M66.9993 25V33L109.499 68V74.5" stroke="#00A3FF" stroke-width="2"/>
<path d="M216 248V256L258.5 291V297.5" stroke="#FFA8DC" stroke-width="2"/>
<path d="M271.973 81.1916L247.473 99.1916C247.473 99.1916 261.693 119.189 262.755 150.106C263.816 181.023 248.974 200.692 248.974 200.692L274.974 218.192C274.974 218.192 301.544 179.27 293.973 135.692C286.403 92.1132 271.973 81.1916 271.973 81.1916Z" fill="#00FFC2"/>
<path d="M275 218L249 201C249 201 235.012 222.34 206.535 234.424C178.058 246.508 154 240 154 240L147 270C147 270 197.237 281.029 234.793 256.396C272.349 231.762 275 218 275 218Z" fill="#FFA8DC"/>
<path d="M325.37 124L317.391 124.58L285.562 169.504L279.079 169.975" stroke="#00FFC2" stroke-width="2"/>
</svg>
