<svg width="409" height="321" viewBox="0 0 409 321" fill="none" xmlns="http://www.w3.org/2000/svg">
<path d="M166.438 142.938V154.176C166.438 156.043 165.852 157.52 164.68 158.605C163.516 159.691 161.922 160.234 159.898 160.234C157.906 160.234 156.324 159.707 155.152 158.652C153.98 157.598 153.383 156.148 153.359 154.305V142.938H156.875V154.199C156.875 155.316 157.141 156.133 157.672 156.648C158.211 157.156 158.953 157.41 159.898 157.41C161.875 157.41 162.879 156.371 162.91 154.293V142.938H166.438ZM173.059 160H169.543V142.938H173.059V160Z" fill="#E4E4E4"/>
<path d="M5.03906 15.9883V22H1.52344V4.9375H8.17969C9.46094 4.9375 10.5859 5.17188 11.5547 5.64062C12.5312 6.10938 13.2812 6.77734 13.8047 7.64453C14.3281 8.50391 14.5898 9.48438 14.5898 10.5859C14.5898 12.2578 14.0156 13.5781 12.8672 14.5469C11.7266 15.5078 10.1445 15.9883 8.12109 15.9883H5.03906ZM5.03906 13.1406H8.17969C9.10938 13.1406 9.81641 12.9219 10.3008 12.4844C10.793 12.0469 11.0391 11.4219 11.0391 10.6094C11.0391 9.77344 10.793 9.09766 10.3008 8.58203C9.80859 8.06641 9.12891 7.80078 8.26172 7.78516H5.03906V13.1406ZM30.9023 22H27.3867V14.6875H20.5312V22H17.0156V4.9375H20.5312V11.8516H27.3867V4.9375H30.9023V22ZM48 13.8555C48 15.5352 47.7031 17.0078 47.1094 18.2734C46.5156 19.5391 45.6641 20.5156 44.5547 21.2031C43.4531 21.8906 42.1875 22.2344 40.7578 22.2344C39.3438 22.2344 38.082 21.8945 36.9727 21.2148C35.8633 20.5352 35.0039 19.5664 34.3945 18.3086C33.7852 17.043 33.4766 15.5898 33.4688 13.9492V13.1055C33.4688 11.4258 33.7695 9.94922 34.3711 8.67578C34.9805 7.39453 35.8359 6.41406 36.9375 5.73438C38.0469 5.04687 39.3125 4.70312 40.7344 4.70312C42.1562 4.70312 43.418 5.04687 44.5195 5.73438C45.6289 6.41406 46.4844 7.39453 47.0859 8.67578C47.6953 9.94922 48 11.4219 48 13.0938V13.8555ZM44.4375 13.082C44.4375 11.293 44.1172 9.93359 43.4766 9.00391C42.8359 8.07422 41.9219 7.60938 40.7344 7.60938C39.5547 7.60938 38.6445 8.07031 38.0039 8.99219C37.3633 9.90625 37.0391 11.25 37.0312 13.0234V13.8555C37.0312 15.5977 37.3516 16.9492 37.9922 17.9102C38.6328 18.8711 39.5547 19.3516 40.7578 19.3516C41.9375 19.3516 42.8438 18.8906 43.4766 17.9688C44.1094 17.0391 44.4297 15.6875 44.4375 13.9141V13.082ZM62.3906 7.78516H57.1641V22H53.6484V7.78516H48.4922V4.9375H62.3906V7.78516ZM78.0938 13.8555C78.0938 15.5352 77.7969 17.0078 77.2031 18.2734C76.6094 19.5391 75.7578 20.5156 74.6484 21.2031C73.5469 21.8906 72.2812 22.2344 70.8516 22.2344C69.4375 22.2344 68.1758 21.8945 67.0664 21.2148C65.957 20.5352 65.0977 19.5664 64.4883 18.3086C63.8789 17.043 63.5703 15.5898 63.5625 13.9492V13.1055C63.5625 11.4258 63.8633 9.94922 64.4648 8.67578C65.0742 7.39453 65.9297 6.41406 67.0312 5.73438C68.1406 5.04687 69.4062 4.70312 70.8281 4.70312C72.25 4.70312 73.5117 5.04687 74.6133 5.73438C75.7227 6.41406 76.5781 7.39453 77.1797 8.67578C77.7891 9.94922 78.0938 11.4219 78.0938 13.0938V13.8555ZM74.5312 13.082C74.5312 11.293 74.2109 9.93359 73.5703 9.00391C72.9297 8.07422 72.0156 7.60938 70.8281 7.60938C69.6484 7.60938 68.7383 8.07031 68.0977 8.99219C67.457 9.90625 67.1328 11.25 67.125 13.0234V13.8555C67.125 15.5977 67.4453 16.9492 68.0859 17.9102C68.7266 18.8711 69.6484 19.3516 70.8516 19.3516C72.0312 19.3516 72.9375 18.8906 73.5703 17.9688C74.2031 17.0391 74.5234 15.6875 74.5312 13.9141V13.082ZM89.4961 17.5234C89.4961 16.8594 89.2617 16.3516 88.793 16C88.3242 15.6406 87.4805 15.2656 86.2617 14.875C85.043 14.4766 84.0781 14.0859 83.3672 13.7031C81.4297 12.6562 80.4609 11.2461 80.4609 9.47266C80.4609 8.55078 80.7188 7.73047 81.2344 7.01172C81.7578 6.28516 82.5039 5.71875 83.4727 5.3125C84.4492 4.90625 85.543 4.70312 86.7539 4.70312C87.9727 4.70312 89.0586 4.92578 90.0117 5.37109C90.9648 5.80859 91.7031 6.42969 92.2266 7.23438C92.7578 8.03906 93.0234 8.95312 93.0234 9.97656H89.5078C89.5078 9.19531 89.2617 8.58984 88.7695 8.16016C88.2773 7.72266 87.5859 7.50391 86.6953 7.50391C85.8359 7.50391 85.168 7.6875 84.6914 8.05469C84.2148 8.41406 83.9766 8.89062 83.9766 9.48438C83.9766 10.0391 84.2539 10.5039 84.8086 10.8789C85.3711 11.2539 86.1953 11.6055 87.2812 11.9336C89.2812 12.5352 90.7383 13.2812 91.6523 14.1719C92.5664 15.0625 93.0234 16.1719 93.0234 17.5C93.0234 18.9766 92.4648 20.1367 91.3477 20.9805C90.2305 21.8164 88.7266 22.2344 86.8359 22.2344C85.5234 22.2344 84.3281 21.9961 83.25 21.5195C82.1719 21.0352 81.3477 20.375 80.7773 19.5391C80.2148 18.7031 79.9336 17.7344 79.9336 16.6328H83.4609C83.4609 18.5156 84.5859 19.457 86.8359 19.457C87.6719 19.457 88.3242 19.2891 88.793 18.9531C89.2617 18.6094 89.4961 18.1328 89.4961 17.5234ZM109.301 22H105.785V14.6875H98.9297V22H95.4141V4.9375H98.9297V11.8516H105.785V4.9375H109.301V22ZM126.398 13.8555C126.398 15.5352 126.102 17.0078 125.508 18.2734C124.914 19.5391 124.062 20.5156 122.953 21.2031C121.852 21.8906 120.586 22.2344 119.156 22.2344C117.742 22.2344 116.48 21.8945 115.371 21.2148C114.262 20.5352 113.402 19.5664 112.793 18.3086C112.184 17.043 111.875 15.5898 111.867 13.9492V13.1055C111.867 11.4258 112.168 9.94922 112.77 8.67578C113.379 7.39453 114.234 6.41406 115.336 5.73438C116.445 5.04687 117.711 4.70312 119.133 4.70312C120.555 4.70312 121.816 5.04687 122.918 5.73438C124.027 6.41406 124.883 7.39453 125.484 8.67578C126.094 9.94922 126.398 11.4219 126.398 13.0938V13.8555ZM122.836 13.082C122.836 11.293 122.516 9.93359 121.875 9.00391C121.234 8.07422 120.32 7.60938 119.133 7.60938C117.953 7.60938 117.043 8.07031 116.402 8.99219C115.762 9.90625 115.438 11.25 115.43 13.0234V13.8555C115.43 15.5977 115.75 16.9492 116.391 17.9102C117.031 18.8711 117.953 19.3516 119.156 19.3516C120.336 19.3516 121.242 18.8906 121.875 17.9688C122.508 17.0391 122.828 15.6875 122.836 13.9141V13.082ZM132.469 15.9883V22H128.953V4.9375H135.609C136.891 4.9375 138.016 5.17188 138.984 5.64062C139.961 6.10938 140.711 6.77734 141.234 7.64453C141.758 8.50391 142.02 9.48438 142.02 10.5859C142.02 12.2578 141.445 13.5781 140.297 14.5469C139.156 15.5078 137.574 15.9883 135.551 15.9883H132.469ZM132.469 13.1406H135.609C136.539 13.1406 137.246 12.9219 137.73 12.4844C138.223 12.0469 138.469 11.4219 138.469 10.6094C138.469 9.77344 138.223 9.09766 137.73 8.58203C137.238 8.06641 136.559 7.80078 135.691 7.78516H132.469V13.1406Z" fill="#E4E4E4"/>
<path d="M340.789 114.027H334.039V121H330.523V103.938H341.633V106.785H334.039V111.191H340.789V114.027ZM347.41 121H343.895V103.938H347.41V121ZM364.18 118.844C363.547 119.602 362.652 120.191 361.496 120.613C360.34 121.027 359.059 121.234 357.652 121.234C356.176 121.234 354.879 120.914 353.762 120.273C352.652 119.625 351.793 118.688 351.184 117.461C350.582 116.234 350.273 114.793 350.258 113.137V111.977C350.258 110.273 350.543 108.801 351.113 107.559C351.691 106.309 352.52 105.355 353.598 104.699C354.684 104.035 355.953 103.703 357.406 103.703C359.43 103.703 361.012 104.188 362.152 105.156C363.293 106.117 363.969 107.52 364.18 109.363H360.758C360.602 108.387 360.254 107.672 359.715 107.219C359.184 106.766 358.449 106.539 357.512 106.539C356.316 106.539 355.406 106.988 354.781 107.887C354.156 108.785 353.84 110.121 353.832 111.895V112.984C353.832 114.773 354.172 116.125 354.852 117.039C355.531 117.953 356.527 118.41 357.84 118.41C359.16 118.41 360.102 118.129 360.664 117.566V114.625H357.465V112.035H364.18V118.844ZM371.633 103.938L376.016 116.312L380.375 103.938H384.992V121H381.465V116.336L381.816 108.285L377.211 121H374.797L370.203 108.297L370.555 116.336V121H367.039V103.938H371.633ZM397.906 117.484H391.742L390.57 121H386.832L393.184 103.938H396.441L402.828 121H399.09L397.906 117.484ZM392.691 114.637H396.957L394.812 108.25L392.691 114.637Z" fill="#E4E4E4"/>
<path d="M41.2617 315H37.7461V297.938H41.2617V315ZM58.4062 315H54.8906L48.0469 303.773V315H44.5312V297.938H48.0469L54.9023 309.188V297.938H58.4062V315ZM67.7812 310.77L71.6484 297.938H75.5625L69.6211 315H65.9531L60.0352 297.938H63.9375L67.7812 310.77ZM80.918 315H77.4023V297.938H80.918V315ZM93.0352 310.523C93.0352 309.859 92.8008 309.352 92.332 309C91.8633 308.641 91.0195 308.266 89.8008 307.875C88.582 307.477 87.6172 307.086 86.9062 306.703C84.9688 305.656 84 304.246 84 302.473C84 301.551 84.2578 300.73 84.7734 300.012C85.2969 299.285 86.043 298.719 87.0117 298.312C87.9883 297.906 89.082 297.703 90.293 297.703C91.5117 297.703 92.5977 297.926 93.5508 298.371C94.5039 298.809 95.2422 299.43 95.7656 300.234C96.2969 301.039 96.5625 301.953 96.5625 302.977H93.0469C93.0469 302.195 92.8008 301.59 92.3086 301.16C91.8164 300.723 91.125 300.504 90.2344 300.504C89.375 300.504 88.707 300.688 88.2305 301.055C87.7539 301.414 87.5156 301.891 87.5156 302.484C87.5156 303.039 87.793 303.504 88.3477 303.879C88.9102 304.254 89.7344 304.605 90.8203 304.934C92.8203 305.535 94.2773 306.281 95.1914 307.172C96.1055 308.062 96.5625 309.172 96.5625 310.5C96.5625 311.977 96.0039 313.137 94.8867 313.98C93.7695 314.816 92.2656 315.234 90.375 315.234C89.0625 315.234 87.8672 314.996 86.7891 314.52C85.7109 314.035 84.8867 313.375 84.3164 312.539C83.7539 311.703 83.4727 310.734 83.4727 309.633H87C87 311.516 88.125 312.457 90.375 312.457C91.2109 312.457 91.8633 312.289 92.332 311.953C92.8008 311.609 93.0352 311.133 93.0352 310.523ZM102.691 315H99.1758V297.938H102.691V315ZM119.977 306.855C119.977 308.535 119.68 310.008 119.086 311.273C118.492 312.539 117.641 313.516 116.531 314.203C115.43 314.891 114.164 315.234 112.734 315.234C111.32 315.234 110.059 314.895 108.949 314.215C107.84 313.535 106.98 312.566 106.371 311.309C105.762 310.043 105.453 308.59 105.445 306.949V306.105C105.445 304.426 105.746 302.949 106.348 301.676C106.957 300.395 107.812 299.414 108.914 298.734C110.023 298.047 111.289 297.703 112.711 297.703C114.133 297.703 115.395 298.047 116.496 298.734C117.605 299.414 118.461 300.395 119.062 301.676C119.672 302.949 119.977 304.422 119.977 306.094V306.855ZM116.414 306.082C116.414 304.293 116.094 302.934 115.453 302.004C114.812 301.074 113.898 300.609 112.711 300.609C111.531 300.609 110.621 301.07 109.98 301.992C109.34 302.906 109.016 304.25 109.008 306.023V306.855C109.008 308.598 109.328 309.949 109.969 310.91C110.609 311.871 111.531 312.352 112.734 312.352C113.914 312.352 114.82 311.891 115.453 310.969C116.086 310.039 116.406 308.688 116.414 306.914V306.082ZM136.406 315H132.891L126.047 303.773V315H122.531V297.938H126.047L132.902 309.188V297.938H136.406V315Z" fill="#E4E4E4"/>
<path fill-rule="evenodd" clip-rule="evenodd" d="M43.4527 151.274C43.4527 84.2961 97.7488 30 164.726 30C231.704 30 286 84.2961 286 151.274C286 218.251 231.704 272.547 164.726 272.547C97.7488 272.547 43.4527 218.251 43.4527 151.274ZM73.8739 151.274C73.8739 101.097 114.55 60.4212 164.726 60.4212C214.903 60.4212 255.579 101.097 255.579 151.274C255.579 201.45 214.903 242.126 164.726 242.126C114.55 242.126 73.8739 201.45 73.8739 151.274Z" fill="#00A3FF"/>
<path d="M58 25V33L100.5 68V74.5" stroke="#00A3FF" stroke-width="2"/>
<path d="M147 307.5H155L190 265H196.5" stroke="#FFA8DC" stroke-width="2"/>
<path d="M262.973 81.1916L238.473 99.1916C238.473 99.1916 252.693 119.189 253.755 150.106C254.816 181.023 239.974 200.692 239.974 200.692L265.974 218.192C265.974 218.192 292.544 179.27 284.973 135.692C277.403 92.1132 262.973 81.1916 262.973 81.1916Z" fill="#00FFC2"/>
<path d="M266 218L240 201C240 201 226.012 222.34 197.535 234.424C169.058 246.508 145 240 145 240L138 270C138 270 188.237 281.029 225.793 256.396C263.349 231.762 266 218 266 218Z" fill="#FFA8DC"/>
<path d="M274 155.5H282L317 113H323.5" stroke="#00FFC2" stroke-width="2"/>
</svg>
