<svg width="295" height="269" viewBox="0 0 295 269" fill="none" xmlns="http://www.w3.org/2000/svg">
<path d="M114.469 123.469V128.375H113.406C108.906 128.458 105.323 129.792 102.656 132.375C99.9896 134.958 98.4479 138.594 98.0312 143.281C100.427 140.531 103.698 139.156 107.844 139.156C111.802 139.156 114.958 140.552 117.312 143.344C119.688 146.135 120.875 149.74 120.875 154.156C120.875 158.844 119.594 162.594 117.031 165.406C114.49 168.219 111.073 169.625 106.781 169.625C102.427 169.625 98.8958 167.958 96.1875 164.625C93.4792 161.271 92.125 156.958 92.125 151.688V149.469C92.125 141.094 93.9062 134.698 97.4688 130.281C101.052 125.844 106.375 123.573 113.438 123.469H114.469ZM106.875 143.969C104.896 143.969 103.073 144.562 101.406 145.75C99.7396 146.938 98.5833 148.427 97.9375 150.219V152.344C97.9375 156.094 98.7812 159.115 100.469 161.406C102.156 163.698 104.26 164.844 106.781 164.844C109.385 164.844 111.427 163.885 112.906 161.969C114.406 160.052 115.156 157.542 115.156 154.438C115.156 151.312 114.396 148.792 112.875 146.875C111.375 144.938 109.375 143.969 106.875 143.969ZM156.25 149.594C156.25 156.365 155.094 161.396 152.781 164.688C150.469 167.979 146.854 169.625 141.938 169.625C137.083 169.625 133.49 168.021 131.156 164.812C128.823 161.583 127.615 156.771 127.531 150.375V142.656C127.531 135.969 128.688 131 131 127.75C133.312 124.5 136.938 122.875 141.875 122.875C146.771 122.875 150.375 124.448 152.688 127.594C155 130.719 156.188 135.552 156.25 142.094V149.594ZM150.469 141.688C150.469 136.792 149.781 133.229 148.406 131C147.031 128.75 144.854 127.625 141.875 127.625C138.917 127.625 136.76 128.74 135.406 130.969C134.052 133.198 133.354 136.625 133.312 141.25V150.5C133.312 155.417 134.021 159.052 135.438 161.406C136.875 163.74 139.042 164.906 141.938 164.906C144.792 164.906 146.906 163.802 148.281 161.594C149.677 159.385 150.406 155.906 150.469 151.156V141.688ZM163.156 132.25C163.156 129.521 164.021 127.271 165.75 125.5C167.5 123.729 169.74 122.844 172.469 122.844C175.24 122.844 177.479 123.74 179.188 125.531C180.917 127.302 181.781 129.604 181.781 132.438V134.656C181.781 137.406 180.906 139.656 179.156 141.406C177.427 143.135 175.219 144 172.531 144C169.823 144 167.583 143.135 165.812 141.406C164.042 139.656 163.156 137.333 163.156 134.438V132.25ZM167.469 134.656C167.469 136.281 167.927 137.625 168.844 138.688C169.76 139.729 170.99 140.25 172.531 140.25C174.01 140.25 175.198 139.74 176.094 138.719C177.01 137.698 177.469 136.302 177.469 134.531V132.25C177.469 130.625 177.021 129.281 176.125 128.219C175.229 127.156 174.01 126.625 172.469 126.625C170.927 126.625 169.708 127.156 168.812 128.219C167.917 129.281 167.469 130.667 167.469 132.375V134.656ZM185.312 157.844C185.312 155.115 186.177 152.875 187.906 151.125C189.656 149.354 191.896 148.469 194.625 148.469C197.354 148.469 199.594 149.344 201.344 151.094C203.094 152.844 203.969 155.167 203.969 158.062V160.281C203.969 163.01 203.094 165.26 201.344 167.031C199.615 168.781 197.396 169.656 194.688 169.656C191.979 169.656 189.74 168.792 187.969 167.062C186.198 165.312 185.312 162.99 185.312 160.094V157.844ZM189.625 160.281C189.625 161.927 190.083 163.281 191 164.344C191.917 165.385 193.146 165.906 194.688 165.906C196.188 165.906 197.385 165.396 198.281 164.375C199.177 163.333 199.625 161.927 199.625 160.156V157.844C199.625 156.198 199.167 154.854 198.25 153.812C197.354 152.771 196.146 152.25 194.625 152.25C193.146 152.25 191.938 152.771 191 153.812C190.083 154.833 189.625 156.219 189.625 157.969V160.281ZM173.844 165.562L170.562 163.5L192.781 127.938L196.062 130L173.844 165.562Z" fill="#E4E4E4"/>
<path fill-rule="evenodd" clip-rule="evenodd" d="M62.33 267.94C24.6163 241.222 0 197.236 0 147.5C0 66.038 66.038 0 147.5 0C228.962 0 295 66.038 295 147.5C295 197.44 270.181 241.584 232.204 268.269L218.471 232.199C242.636 211.929 258 181.509 258 147.5C258 86.4725 208.527 37 147.5 37C86.4725 37 37 86.4725 37 147.5C37 180.925 51.8409 210.884 75.2928 231.147L62.33 267.94Z" fill="#E4E4E4"/>
</svg>
