<svg width="288" height="295" viewBox="0 0 288 295" fill="none" xmlns="http://www.w3.org/2000/svg">
<path d="M119.375 135.375C119.375 137.646 118.771 139.667 117.562 141.438C116.375 143.208 114.76 144.594 112.719 145.594C115.094 146.615 116.969 148.104 118.344 150.062C119.74 152.021 120.438 154.24 120.438 156.719C120.438 160.656 119.104 163.792 116.438 166.125C113.792 168.458 110.302 169.625 105.969 169.625C101.594 169.625 98.0833 168.458 95.4375 166.125C92.8125 163.771 91.5 160.635 91.5 156.719C91.5 154.26 92.1667 152.042 93.5 150.062C94.8542 148.083 96.7188 146.583 99.0938 145.562C97.0729 144.562 95.4792 143.177 94.3125 141.406C93.1458 139.635 92.5625 137.625 92.5625 135.375C92.5625 131.542 93.7917 128.5 96.25 126.25C98.7083 124 101.948 122.875 105.969 122.875C109.969 122.875 113.198 124 115.656 126.25C118.135 128.5 119.375 131.542 119.375 135.375ZM114.656 156.594C114.656 154.052 113.844 151.979 112.219 150.375C110.615 148.771 108.51 147.969 105.906 147.969C103.302 147.969 101.208 148.76 99.625 150.344C98.0625 151.927 97.2812 154.01 97.2812 156.594C97.2812 159.177 98.0417 161.208 99.5625 162.688C101.104 164.167 103.24 164.906 105.969 164.906C108.677 164.906 110.802 164.167 112.344 162.688C113.885 161.188 114.656 159.156 114.656 156.594ZM105.969 127.625C103.698 127.625 101.854 128.333 100.438 129.75C99.0417 131.146 98.3438 133.052 98.3438 135.469C98.3438 137.781 99.0312 139.656 100.406 141.094C101.802 142.51 103.656 143.219 105.969 143.219C108.281 143.219 110.125 142.51 111.5 141.094C112.896 139.656 113.594 137.781 113.594 135.469C113.594 133.156 112.875 131.271 111.438 129.812C110 128.354 108.177 127.625 105.969 127.625ZM156.25 149.594C156.25 156.365 155.094 161.396 152.781 164.688C150.469 167.979 146.854 169.625 141.938 169.625C137.083 169.625 133.49 168.021 131.156 164.812C128.823 161.583 127.615 156.771 127.531 150.375V142.656C127.531 135.969 128.688 131 131 127.75C133.312 124.5 136.938 122.875 141.875 122.875C146.771 122.875 150.375 124.448 152.688 127.594C155 130.719 156.188 135.552 156.25 142.094V149.594ZM150.469 141.688C150.469 136.792 149.781 133.229 148.406 131C147.031 128.75 144.854 127.625 141.875 127.625C138.917 127.625 136.76 128.74 135.406 130.969C134.052 133.198 133.354 136.625 133.312 141.25V150.5C133.312 155.417 134.021 159.052 135.438 161.406C136.875 163.74 139.042 164.906 141.938 164.906C144.792 164.906 146.906 163.802 148.281 161.594C149.677 159.385 150.406 155.906 150.469 151.156V141.688ZM163.156 132.25C163.156 129.521 164.021 127.271 165.75 125.5C167.5 123.729 169.74 122.844 172.469 122.844C175.24 122.844 177.479 123.74 179.188 125.531C180.917 127.302 181.781 129.604 181.781 132.438V134.656C181.781 137.406 180.906 139.656 179.156 141.406C177.427 143.135 175.219 144 172.531 144C169.823 144 167.583 143.135 165.812 141.406C164.042 139.656 163.156 137.333 163.156 134.438V132.25ZM167.469 134.656C167.469 136.281 167.927 137.625 168.844 138.688C169.76 139.729 170.99 140.25 172.531 140.25C174.01 140.25 175.198 139.74 176.094 138.719C177.01 137.698 177.469 136.302 177.469 134.531V132.25C177.469 130.625 177.021 129.281 176.125 128.219C175.229 127.156 174.01 126.625 172.469 126.625C170.927 126.625 169.708 127.156 168.812 128.219C167.917 129.281 167.469 130.667 167.469 132.375V134.656ZM185.312 157.844C185.312 155.115 186.177 152.875 187.906 151.125C189.656 149.354 191.896 148.469 194.625 148.469C197.354 148.469 199.594 149.344 201.344 151.094C203.094 152.844 203.969 155.167 203.969 158.062V160.281C203.969 163.01 203.094 165.26 201.344 167.031C199.615 168.781 197.396 169.656 194.688 169.656C191.979 169.656 189.74 168.792 187.969 167.062C186.198 165.312 185.312 162.99 185.312 160.094V157.844ZM189.625 160.281C189.625 161.927 190.083 163.281 191 164.344C191.917 165.385 193.146 165.906 194.688 165.906C196.188 165.906 197.385 165.396 198.281 164.375C199.177 163.333 199.625 161.927 199.625 160.156V157.844C199.625 156.198 199.167 154.854 198.25 153.812C197.354 152.771 196.146 152.25 194.625 152.25C193.146 152.25 191.938 152.771 191 153.812C190.083 154.833 189.625 156.219 189.625 157.969V160.281ZM173.844 165.562L170.562 163.5L192.781 127.938L196.062 130L173.844 165.562Z" fill="#E4E4E4"/>
<path fill-rule="evenodd" clip-rule="evenodd" d="M287.185 195C267.414 253.158 212.344 295 147.5 295C66.038 295 0 228.962 0 147.5C0 66.038 66.038 0 147.5 0C212.344 0 267.414 41.8424 287.185 100H247.298C229.534 62.7446 191.524 37 147.5 37C86.4725 37 37 86.4725 37 147.5C37 208.527 86.4725 258 147.5 258C191.524 258 229.534 232.255 247.298 195H287.185Z" fill="#E4E4E4"/>
</svg>
