<svg width="303" height="303" viewBox="0 0 303 303" fill="none" xmlns="http://www.w3.org/2000/svg">
<g filter="url(#filter0_d)">
<mask id="path-1-inside-1" fill="white">
<path fill-rule="evenodd" clip-rule="evenodd" d="M151.5 299C232.962 299 299 232.962 299 151.5C299 70.038 232.962 4 151.5 4C70.038 4 4 70.038 4 151.5C4 232.962 70.038 299 151.5 299ZM151.5 262C212.527 262 262 212.527 262 151.5C262 90.4725 212.527 41 151.5 41C90.4725 41 41 90.4725 41 151.5C41 212.527 90.4725 262 151.5 262Z"/>
</mask>
<path d="M298.5 151.5C298.5 232.686 232.686 298.5 151.5 298.5V299.5C233.238 299.5 299.5 233.238 299.5 151.5H298.5ZM151.5 4.5C232.686 4.5 298.5 70.3141 298.5 151.5H299.5C299.5 69.7619 233.238 3.5 151.5 3.5V4.5ZM4.5 151.5C4.5 70.3141 70.3141 4.5 151.5 4.5V3.5C69.7619 3.5 3.5 69.7619 3.5 151.5H4.5ZM151.5 298.5C70.3141 298.5 4.5 232.686 4.5 151.5H3.5C3.5 233.238 69.7619 299.5 151.5 299.5V298.5ZM261.5 151.5C261.5 212.251 212.251 261.5 151.5 261.5V262.5C212.804 262.5 262.5 212.804 262.5 151.5H261.5ZM151.5 41.5C212.251 41.5 261.5 90.7487 261.5 151.5H262.5C262.5 90.1964 212.804 40.5 151.5 40.5V41.5ZM41.5 151.5C41.5 90.7487 90.7487 41.5 151.5 41.5V40.5C90.1964 40.5 40.5 90.1964 40.5 151.5H41.5ZM151.5 261.5C90.7487 261.5 41.5 212.251 41.5 151.5H40.5C40.5 212.804 90.1964 262.5 151.5 262.5V261.5Z" fill="#E4E4E4" mask="url(#path-1-inside-1)"/>
</g>
<path d="M114.781 173H108.969V134.469L97.3125 138.75V133.5L113.875 127.281H114.781V173ZM160.25 153.594C160.25 160.365 159.094 165.396 156.781 168.688C154.469 171.979 150.854 173.625 145.938 173.625C141.083 173.625 137.49 172.021 135.156 168.812C132.823 165.583 131.615 160.771 131.531 154.375V146.656C131.531 139.969 132.688 135 135 131.75C137.312 128.5 140.938 126.875 145.875 126.875C150.771 126.875 154.375 128.448 156.688 131.594C159 134.719 160.188 139.552 160.25 146.094V153.594ZM154.469 145.688C154.469 140.792 153.781 137.229 152.406 135C151.031 132.75 148.854 131.625 145.875 131.625C142.917 131.625 140.76 132.74 139.406 134.969C138.052 137.198 137.354 140.625 137.312 145.25V154.5C137.312 159.417 138.021 163.052 139.438 165.406C140.875 167.74 143.042 168.906 145.938 168.906C148.792 168.906 150.906 167.802 152.281 165.594C153.677 163.385 154.406 159.906 154.469 155.156V145.688ZM167.156 136.25C167.156 133.521 168.021 131.271 169.75 129.5C171.5 127.729 173.74 126.844 176.469 126.844C179.24 126.844 181.479 127.74 183.188 129.531C184.917 131.302 185.781 133.604 185.781 136.438V138.656C185.781 141.406 184.906 143.656 183.156 145.406C181.427 147.135 179.219 148 176.531 148C173.823 148 171.583 147.135 169.812 145.406C168.042 143.656 167.156 141.333 167.156 138.438V136.25ZM171.469 138.656C171.469 140.281 171.927 141.625 172.844 142.688C173.76 143.729 174.99 144.25 176.531 144.25C178.01 144.25 179.198 143.74 180.094 142.719C181.01 141.698 181.469 140.302 181.469 138.531V136.25C181.469 134.625 181.021 133.281 180.125 132.219C179.229 131.156 178.01 130.625 176.469 130.625C174.927 130.625 173.708 131.156 172.812 132.219C171.917 133.281 171.469 134.667 171.469 136.375V138.656ZM189.312 161.844C189.312 159.115 190.177 156.875 191.906 155.125C193.656 153.354 195.896 152.469 198.625 152.469C201.354 152.469 203.594 153.344 205.344 155.094C207.094 156.844 207.969 159.167 207.969 162.062V164.281C207.969 167.01 207.094 169.26 205.344 171.031C203.615 172.781 201.396 173.656 198.688 173.656C195.979 173.656 193.74 172.792 191.969 171.062C190.198 169.312 189.312 166.99 189.312 164.094V161.844ZM193.625 164.281C193.625 165.927 194.083 167.281 195 168.344C195.917 169.385 197.146 169.906 198.688 169.906C200.188 169.906 201.385 169.396 202.281 168.375C203.177 167.333 203.625 165.927 203.625 164.156V161.844C203.625 160.198 203.167 158.854 202.25 157.812C201.354 156.771 200.146 156.25 198.625 156.25C197.146 156.25 195.938 156.771 195 157.812C194.083 158.833 193.625 160.219 193.625 161.969V164.281ZM177.844 169.562L174.562 167.5L196.781 131.938L200.062 134L177.844 169.562Z" fill="#E4E4E4"/>
<path d="M220 21L204.5 54.5C204.5 54.5 214 59 227.5 71.5C241 84 244 91.5 244 91.5L272 66.5C272 66.5 268.24 58 251.5 42.5C234.76 27 220 21 220 21Z" fill="#E4E4E4"/>
<defs>
<filter id="filter0_d" x="0" y="0" width="303" height="303" filterUnits="userSpaceOnUse" color-interpolation-filters="sRGB">
<feFlood flood-opacity="0" result="BackgroundImageFix"/>
<feColorMatrix in="SourceAlpha" type="matrix" values="0 0 0 0 0 0 0 0 0 0 0 0 0 0 0 0 0 0 127 0"/>
<feOffset/>
<feGaussianBlur stdDeviation="2"/>
<feColorMatrix type="matrix" values="0 0 0 0 0 0 0 0 0 0 0 0 0 0 0 0 0 0 0.25 0"/>
<feBlend mode="normal" in2="BackgroundImageFix" result="effect1_dropShadow"/>
<feBlend mode="normal" in="SourceGraphic" in2="effect1_dropShadow" result="shape"/>
</filter>
</defs>
</svg>
