<svg width="295" height="295" viewBox="0 0 295 295" fill="none" xmlns="http://www.w3.org/2000/svg">
<path fill-rule="evenodd" clip-rule="evenodd" d="M147.5 295C228.962 295 295 228.962 295 147.5C295 66.038 228.962 0 147.5 0C66.038 0 0 66.038 0 147.5C0 228.962 66.038 295 147.5 295ZM147.5 258C208.527 258 258 208.527 258 147.5C258 86.4725 208.527 37 147.5 37C86.4725 37 37 86.4725 37 147.5C37 208.527 86.4725 258 147.5 258Z" fill="#E4E4E4"/>
<path d="M92.7812 169H86.9688V130.469L75.3125 134.75V129.5L91.875 123.281H92.7812V169ZM138.25 149.594C138.25 156.365 137.094 161.396 134.781 164.688C132.469 167.979 128.854 169.625 123.938 169.625C119.083 169.625 115.49 168.021 113.156 164.812C110.823 161.583 109.615 156.771 109.531 150.375V142.656C109.531 135.969 110.688 131 113 127.75C115.312 124.5 118.938 122.875 123.875 122.875C128.771 122.875 132.375 124.448 134.688 127.594C137 130.719 138.188 135.552 138.25 142.094V149.594ZM132.469 141.688C132.469 136.792 131.781 133.229 130.406 131C129.031 128.75 126.854 127.625 123.875 127.625C120.917 127.625 118.76 128.74 117.406 130.969C116.052 133.198 115.354 136.625 115.312 141.25V150.5C115.312 155.417 116.021 159.052 117.438 161.406C118.875 163.74 121.042 164.906 123.938 164.906C126.792 164.906 128.906 163.802 130.281 161.594C131.677 159.385 132.406 155.906 132.469 151.156V141.688ZM174.188 149.594C174.188 156.365 173.031 161.396 170.719 164.688C168.406 167.979 164.792 169.625 159.875 169.625C155.021 169.625 151.427 168.021 149.094 164.812C146.76 161.583 145.552 156.771 145.469 150.375V142.656C145.469 135.969 146.625 131 148.938 127.75C151.25 124.5 154.875 122.875 159.812 122.875C164.708 122.875 168.312 124.448 170.625 127.594C172.938 130.719 174.125 135.552 174.188 142.094V149.594ZM168.406 141.688C168.406 136.792 167.719 133.229 166.344 131C164.969 128.75 162.792 127.625 159.812 127.625C156.854 127.625 154.698 128.74 153.344 130.969C151.99 133.198 151.292 136.625 151.25 141.25V150.5C151.25 155.417 151.958 159.052 153.375 161.406C154.812 163.74 156.979 164.906 159.875 164.906C162.729 164.906 164.844 163.802 166.219 161.594C167.615 159.385 168.344 155.906 168.406 151.156V141.688ZM181.094 132.25C181.094 129.521 181.958 127.271 183.688 125.5C185.438 123.729 187.677 122.844 190.406 122.844C193.177 122.844 195.417 123.74 197.125 125.531C198.854 127.302 199.719 129.604 199.719 132.438V134.656C199.719 137.406 198.844 139.656 197.094 141.406C195.365 143.135 193.156 144 190.469 144C187.76 144 185.521 143.135 183.75 141.406C181.979 139.656 181.094 137.333 181.094 134.438V132.25ZM185.406 134.656C185.406 136.281 185.865 137.625 186.781 138.688C187.698 139.729 188.927 140.25 190.469 140.25C191.948 140.25 193.135 139.74 194.031 138.719C194.948 137.698 195.406 136.302 195.406 134.531V132.25C195.406 130.625 194.958 129.281 194.062 128.219C193.167 127.156 191.948 126.625 190.406 126.625C188.865 126.625 187.646 127.156 186.75 128.219C185.854 129.281 185.406 130.667 185.406 132.375V134.656ZM203.25 157.844C203.25 155.115 204.115 152.875 205.844 151.125C207.594 149.354 209.833 148.469 212.562 148.469C215.292 148.469 217.531 149.344 219.281 151.094C221.031 152.844 221.906 155.167 221.906 158.062V160.281C221.906 163.01 221.031 165.26 219.281 167.031C217.552 168.781 215.333 169.656 212.625 169.656C209.917 169.656 207.677 168.792 205.906 167.062C204.135 165.312 203.25 162.99 203.25 160.094V157.844ZM207.562 160.281C207.562 161.927 208.021 163.281 208.938 164.344C209.854 165.385 211.083 165.906 212.625 165.906C214.125 165.906 215.323 165.396 216.219 164.375C217.115 163.333 217.562 161.927 217.562 160.156V157.844C217.562 156.198 217.104 154.854 216.188 153.812C215.292 152.771 214.083 152.25 212.562 152.25C211.083 152.25 209.875 152.771 208.938 153.812C208.021 154.833 207.562 156.219 207.562 157.969V160.281ZM191.781 165.562L188.5 163.5L210.719 127.938L214 130L191.781 165.562Z" fill="#E4E4E4"/>
</svg>
