<svg width="273" height="330" viewBox="0 0 273 330" fill="none" xmlns="http://www.w3.org/2000/svg">
<path d="M108.812 161.078L111.109 148.938H114.613L110.828 166H107.289L104.512 154.586L101.734 166H98.1953L94.4102 148.938H97.9141L100.223 161.055L103.035 148.938H106.012L108.812 161.078ZM126.789 158.605H120.039V163.176H127.961V166H116.523V148.938H127.938V151.785H120.039V155.852H126.789V158.605ZM130.023 166V148.938H136C138.07 148.938 139.641 149.336 140.711 150.133C141.781 150.922 142.316 152.082 142.316 153.613C142.316 154.449 142.102 155.188 141.672 155.828C141.242 156.461 140.645 156.926 139.879 157.223C140.754 157.441 141.441 157.883 141.941 158.547C142.449 159.211 142.703 160.023 142.703 160.984C142.703 162.625 142.18 163.867 141.133 164.711C140.086 165.555 138.594 165.984 136.656 166H130.023ZM133.539 158.57V163.176H136.551C137.379 163.176 138.023 162.98 138.484 162.59C138.953 162.191 139.188 161.645 139.188 160.949C139.188 159.387 138.379 158.594 136.762 158.57H133.539ZM133.539 156.086H136.141C137.914 156.055 138.801 155.348 138.801 153.965C138.801 153.191 138.574 152.637 138.121 152.301C137.676 151.957 136.969 151.785 136 151.785H133.539V156.086ZM145.352 166V148.938H151.328C153.398 148.938 154.969 149.336 156.039 150.133C157.109 150.922 157.645 152.082 157.645 153.613C157.645 154.449 157.43 155.188 157 155.828C156.57 156.461 155.973 156.926 155.207 157.223C156.082 157.441 156.77 157.883 157.27 158.547C157.777 159.211 158.031 160.023 158.031 160.984C158.031 162.625 157.508 163.867 156.461 164.711C155.414 165.555 153.922 165.984 151.984 166H145.352ZM148.867 158.57V163.176H151.879C152.707 163.176 153.352 162.98 153.812 162.59C154.281 162.191 154.516 161.645 154.516 160.949C154.516 159.387 153.707 158.594 152.09 158.57H148.867ZM148.867 156.086H151.469C153.242 156.055 154.129 155.348 154.129 153.965C154.129 153.191 153.902 152.637 153.449 152.301C153.004 151.957 152.297 151.785 151.328 151.785H148.867V156.086Z" fill="#E4E4E4"/>
<path d="M14.918 16.3164C14.7852 18.1523 14.1055 19.5977 12.8789 20.6523C11.6602 21.707 10.0508 22.2344 8.05078 22.2344C5.86328 22.2344 4.14062 21.5 2.88281 20.0312C1.63281 18.5547 1.00781 16.5312 1.00781 13.9609V12.918C1.00781 11.2773 1.29688 9.83203 1.875 8.58203C2.45312 7.33203 3.27734 6.375 4.34766 5.71094C5.42578 5.03906 6.67578 4.70312 8.09766 4.70312C10.0664 4.70312 11.6523 5.23047 12.8555 6.28516C14.0586 7.33984 14.7539 8.82031 14.9414 10.7266H11.4258C11.3398 9.625 11.0312 8.82812 10.5 8.33594C9.97656 7.83594 9.17578 7.58594 8.09766 7.58594C6.92578 7.58594 6.04688 8.00781 5.46094 8.85156C4.88281 9.6875 4.58594 10.9883 4.57031 12.7539V14.043C4.57031 15.8867 4.84766 17.2344 5.40234 18.0859C5.96484 18.9375 6.84766 19.3633 8.05078 19.3633C9.13672 19.3633 9.94531 19.1172 10.4766 18.625C11.0156 18.125 11.3242 17.3555 11.4023 16.3164H14.918ZM26.0742 17.5234C26.0742 16.8594 25.8398 16.3516 25.3711 16C24.9023 15.6406 24.0586 15.2656 22.8398 14.875C21.6211 14.4766 20.6562 14.0859 19.9453 13.7031C18.0078 12.6562 17.0391 11.2461 17.0391 9.47266C17.0391 8.55078 17.2969 7.73047 17.8125 7.01172C18.3359 6.28516 19.082 5.71875 20.0508 5.3125C21.0273 4.90625 22.1211 4.70312 23.332 4.70312C24.5508 4.70312 25.6367 4.92578 26.5898 5.37109C27.543 5.80859 28.2812 6.42969 28.8047 7.23438C29.3359 8.03906 29.6016 8.95312 29.6016 9.97656H26.0859C26.0859 9.19531 25.8398 8.58984 25.3477 8.16016C24.8555 7.72266 24.1641 7.50391 23.2734 7.50391C22.4141 7.50391 21.7461 7.6875 21.2695 8.05469C20.793 8.41406 20.5547 8.89062 20.5547 9.48438C20.5547 10.0391 20.832 10.5039 21.3867 10.8789C21.9492 11.2539 22.7734 11.6055 23.8594 11.9336C25.8594 12.5352 27.3164 13.2812 28.2305 14.1719C29.1445 15.0625 29.6016 16.1719 29.6016 17.5C29.6016 18.9766 29.043 20.1367 27.9258 20.9805C26.8086 21.8164 25.3047 22.2344 23.4141 22.2344C22.1016 22.2344 20.9062 21.9961 19.8281 21.5195C18.75 21.0352 17.9258 20.375 17.3555 19.5391C16.793 18.7031 16.5117 17.7344 16.5117 16.6328H20.0391C20.0391 18.5156 21.1641 19.457 23.4141 19.457C24.25 19.457 24.9023 19.2891 25.3711 18.9531C25.8398 18.6094 26.0742 18.1328 26.0742 17.5234ZM40.8398 17.5234C40.8398 16.8594 40.6055 16.3516 40.1367 16C39.668 15.6406 38.8242 15.2656 37.6055 14.875C36.3867 14.4766 35.4219 14.0859 34.7109 13.7031C32.7734 12.6562 31.8047 11.2461 31.8047 9.47266C31.8047 8.55078 32.0625 7.73047 32.5781 7.01172C33.1016 6.28516 33.8477 5.71875 34.8164 5.3125C35.793 4.90625 36.8867 4.70312 38.0977 4.70312C39.3164 4.70312 40.4023 4.92578 41.3555 5.37109C42.3086 5.80859 43.0469 6.42969 43.5703 7.23438C44.1016 8.03906 44.3672 8.95312 44.3672 9.97656H40.8516C40.8516 9.19531 40.6055 8.58984 40.1133 8.16016C39.6211 7.72266 38.9297 7.50391 38.0391 7.50391C37.1797 7.50391 36.5117 7.6875 36.0352 8.05469C35.5586 8.41406 35.3203 8.89062 35.3203 9.48438C35.3203 10.0391 35.5977 10.5039 36.1523 10.8789C36.7148 11.2539 37.5391 11.6055 38.625 11.9336C40.625 12.5352 42.082 13.2812 42.9961 14.1719C43.9102 15.0625 44.3672 16.1719 44.3672 17.5C44.3672 18.9766 43.8086 20.1367 42.6914 20.9805C41.5742 21.8164 40.0703 22.2344 38.1797 22.2344C36.8672 22.2344 35.6719 21.9961 34.5938 21.5195C33.5156 21.0352 32.6914 20.375 32.1211 19.5391C31.5586 18.7031 31.2773 17.7344 31.2773 16.6328H34.8047C34.8047 18.5156 35.9297 19.457 38.1797 19.457C39.0156 19.457 39.668 19.2891 40.1367 18.9531C40.6055 18.6094 40.8398 18.1328 40.8398 17.5234Z" fill="#E4E4E4"/>
<path d="M216.41 324H212.895V316.688H206.039V324H202.523V306.938H206.039V313.852H212.895V306.938H216.41V324ZM231.984 309.785H226.758V324H223.242V309.785H218.086V306.938H231.984V309.785ZM238.594 306.938L242.977 319.312L247.336 306.938H251.953V324H248.426V319.336L248.777 311.285L244.172 324H241.758L237.164 311.297L237.516 319.336V324H234V306.938H238.594ZM258.539 321.176H266.004V324H255.023V306.938H258.539V321.176Z" fill="#E4E4E4"/>
<path fill-rule="evenodd" clip-rule="evenodd" d="M129 36C62.1482 36.1476 8 90.387 8 157.273C8 224.16 62.1482 278.399 129 278.547V248.125C78.9494 247.978 38.4212 207.359 38.4212 157.273C38.4212 107.188 78.9494 66.5689 129 66.4213V36Z" fill="#EBFF00"/>
<path fill-rule="evenodd" clip-rule="evenodd" d="M129 278.547C195.852 278.399 250 224.16 250 157.273C250 90.387 195.852 36.1477 129 36V66.4213C179.051 66.5688 219.579 107.188 219.579 157.273C219.579 207.359 179.051 247.978 129 248.125V278.547Z" fill="#54EB5A"/>
<path d="M24 29V37L66.5 72V78.5" stroke="#EBFF00" stroke-width="2"/>
<path d="M190 247V255L232.5 290V296.5" stroke="#54EB5A" stroke-width="2"/>
</svg>
